<svg width="16" height="13" viewBox="0 0 16 13" fill="none" xmlns="http://www.w3.org/2000/svg">
<path d="M1.81875 5.25C1.99375 4.8 2.02188 4.4 1.90313 4.05C1.78438 3.7 1.58125 3.35 1.29375 3C0.88125 2.5 0.609375 2.02813 0.478125 1.58438C0.346875 1.14063 0.325 0.6125 0.4125 0H1.875C1.775 0.475 1.75937 0.8625 1.82812 1.1625C1.89688 1.4625 2.075 1.7875 2.3625 2.1375C2.8375 2.7125 3.14062 3.22188 3.27187 3.66563C3.40312 4.10938 3.40625 4.6375 3.28125 5.25H1.81875V5.25M4.81875 5.25C4.99375 4.8 5.025 4.4 4.9125 4.05C4.8 3.7 4.6 3.35 4.3125 3C3.9 2.5 3.625 2.02813 3.4875 1.58438C3.35 1.14063 3.325 0.6125 3.4125 0H4.875C4.775 0.475 4.75937 0.8625 4.82812 1.1625C4.89688 1.4625 5.075 1.7875 5.3625 2.1375C5.8375 2.7125 6.14062 3.22188 6.27187 3.66563C6.40312 4.10938 6.40625 4.6375 6.28125 5.25H4.81875V5.25M7.81875 5.25C7.99375 4.8 8.025 4.4 7.9125 4.05C7.8 3.7 7.6 3.35 7.3125 3C6.9 2.5 6.625 2.02813 6.4875 1.58438C6.35 1.14063 6.325 0.6125 6.4125 0H7.875C7.775 0.475 7.75937 0.8625 7.82812 1.1625C7.89688 1.4625 8.075 1.7875 8.3625 2.1375C8.8375 2.7125 9.14063 3.22188 9.27188 3.66563C9.40313 4.10938 9.40625 4.6375 9.28125 5.25H7.81875V5.25M2.25 12.75C1.625 12.75 1.09375 12.5312 0.65625 12.0938C0.21875 11.6562 0 11.125 0 10.5V6.75H10.5188C10.5813 6.325 10.75 5.95313 11.025 5.63438C11.3 5.31563 11.6375 5.0875 12.0375 4.95L15.5063 3.7875L15.975 5.2125L12.5063 6.375C12.3563 6.425 12.2344 6.51562 12.1406 6.64687C12.0469 6.77812 12 6.925 12 7.0875V10.5C12 11.125 11.7812 11.6562 11.3438 12.0938C10.9062 12.5312 10.375 12.75 9.75 12.75H2.25V12.75M2.25 11.25H9.75C9.9625 11.25 10.1406 11.1781 10.2844 11.0344C10.4281 10.8906 10.5 10.7125 10.5 10.5V8.25H1.5V10.5C1.5 10.7125 1.57188 10.8906 1.71563 11.0344C1.85938 11.1781 2.0375 11.25 2.25 11.25V11.25M6 9.75V9.75V9.75V9.75V9.75V9.75V9.75V9.75V9.75V9.75" fill="#0F172A"/>
</svg>
