<svg width="17" height="15" viewBox="0 0 17 15" fill="none" xmlns="http://www.w3.org/2000/svg">
<path d="M1.5 9.75C1.0875 9.75 0.734375 9.60312 0.440625 9.30937C0.146875 9.01562 0 8.6625 0 8.25V1.5C0 1.0875 0.146875 0.734375 0.440625 0.440625C0.734375 0.146875 1.0875 0 1.5 0H15C15.4125 0 15.7656 0.146875 16.0594 0.440625C16.3531 0.734375 16.5 1.0875 16.5 1.5V8.25C16.5 8.6625 16.3531 9.01562 16.0594 9.30937C15.7656 9.60312 15.4125 9.75 15 9.75H1.5V9.75M1.5 1.5V1.5V1.5V8.25V8.25V8.25H15V8.25V8.25V1.5V1.5V1.5H1.5V1.5M1.55625 12.375L1.5 11.25L14.9812 10.5375L15.0375 11.6625L1.55625 12.375V12.375M1.5 14.2312V13.1062H15V14.2312H1.5V14.2312M6.9375 7.125C7.8625 7.125 8.75313 6.9625 9.60938 6.6375C10.4656 6.3125 11.2125 5.8125 11.85 5.1375C11.925 5.6625 12.2 6.0625 12.675 6.3375C13.15 6.6125 13.675 6.75 14.25 6.75V3C13.675 3 13.15 3.14062 12.675 3.42188C12.2 3.70312 11.925 4.1125 11.85 4.65C11.1875 4 10.4344 3.5 9.59062 3.15C8.74687 2.8 7.8625 2.625 6.9375 2.625C5.95 2.625 5 2.79688 4.0875 3.14062C3.175 3.48438 2.4375 4.0625 1.875 4.875C2.4375 5.6875 3.175 6.26562 4.0875 6.60938C5 6.95312 5.95 7.125 6.9375 7.125V7.125M1.5 1.5V1.5V1.5V1.5V8.25V8.25V8.25V8.25V8.25V8.25V1.5V1.5V1.5V1.5" fill="#0F172A"/>
</svg>
