<svg id="svg" version="1.1" width="400" height="400" viewBox="0 0 400 400" xmlns="http://www.w3.org/2000/svg" xmlns:xlink="http://www.w3.org/1999/xlink"><g id="svgg"><path id="path0" d="M281.083 163.705 C 256.839 166.309,239.484 184.332,241.779 204.523 C 242.221 208.416,243.910 214.171,244.828 214.916 C 245.234 215.245,245.362 215.262,245.183 214.964 C 244.511 213.844,250.304 202.522,254.289 197.168 C 260.806 188.411,270.097 180.317,278.125 176.403 L 279.492 175.737 278.125 176.977 C 277.373 177.659,274.855 179.905,272.529 181.968 C 260.404 192.720,251.937 205.186,248.413 217.475 C 247.551 220.480,247.587 220.502,251.824 219.525 C 274.106 214.388,288.328 200.778,291.818 181.250 C 292.684 176.408,292.439 164.984,291.448 163.958 C 290.999 163.493,284.528 163.335,281.083 163.705 M230.092 176.145 C 229.474 177.301,228.582 181.484,228.171 185.150 L 227.802 188.449 229.339 190.285 C 235.623 197.790,237.214 206.634,233.781 214.967 C 233.233 216.296,232.747 217.537,232.701 217.726 C 232.573 218.250,240.095 220.701,242.656 220.968 C 245.329 221.248,245.278 221.388,243.555 218.528 C 237.741 208.873,237.748 195.178,243.572 183.569 L 244.859 181.004 243.497 179.918 C 241.546 178.361,236.909 176.314,234.206 175.817 C 231.041 175.235,230.559 175.273,230.092 176.145 M127.734 209.248 C 127.197 209.334,124.485 209.760,121.707 210.194 C 83.411 216.183,82.746 227.610,120.313 234.138 C 149.273 239.171,203.666 241.123,241.016 238.471 C 293.169 234.767,317.437 227.136,306.449 217.895 C 302.802 214.828,278.906 208.349,278.906 210.427 C 278.906 210.632,278.009 211.692,276.913 212.782 C 274.659 215.024,274.432 214.756,279.492 215.831 C 287.216 217.473,290.104 220.110,286.422 222.157 C 267.325 232.777,140.756 233.387,116.541 222.977 C 109.949 220.143,113.685 217.225,126.673 215.063 C 133.094 213.994,132.702 214.290,131.576 211.366 C 130.608 208.850,130.518 208.801,127.734 209.248 M115.845 236.288 C 114.924 237.778,125.063 241.892,134.263 243.762 C 136.672 244.251,138.562 244.784,138.462 244.946 C 138.362 245.107,138.614 245.152,139.021 245.046 C 139.429 244.939,141.407 245.131,143.417 245.473 C 187.591 252.977,264.790 249.117,282.530 238.516 C 284.404 237.396,285.339 235.965,284.007 236.256 C 269.512 239.412,238.308 242.274,215.430 242.544 C 211.133 242.595,206.211 242.702,204.492 242.784 C 201.236 242.937,172.933 242.322,168.164 241.993 C 166.660 241.890,162.354 241.620,158.594 241.393 C 151.144 240.944,139.402 239.787,132.617 238.834 C 127.760 238.151,117.239 236.389,116.516 236.138 C 116.255 236.046,115.953 236.114,115.845 236.288 " stroke="none" fill="#457636" fill-rule="evenodd"></path><path id="path1" d="M195.432 172.680 C 195.389 174.232,195.509 175.315,195.711 175.191 C 195.906 175.070,195.812 175.812,195.503 176.838 C 195.194 177.865,194.760 178.765,194.539 178.839 C 194.317 178.913,194.231 179.127,194.348 179.316 C 194.464 179.505,194.202 180.017,193.764 180.455 C 193.327 180.892,192.953 181.382,192.934 181.543 C 192.883 181.965,188.281 186.514,188.281 186.143 C 188.281 185.972,187.910 186.305,187.455 186.882 C 187.001 187.459,186.548 187.850,186.448 187.750 C 185.457 186.759,176.953 198.840,176.953 201.240 C 176.953 201.658,176.820 201.917,176.657 201.816 C 176.494 201.715,176.360 203.711,176.360 206.250 C 176.360 208.789,176.494 210.785,176.657 210.684 C 176.820 210.583,176.953 210.794,176.953 211.152 C 176.953 211.510,177.518 212.970,178.208 214.397 C 178.898 215.824,179.411 217.168,179.347 217.383 C 179.284 217.598,179.367 217.639,179.532 217.474 C 180.132 216.873,182.456 219.601,181.925 220.283 C 181.514 220.810,181.533 220.830,182.058 220.421 C 182.543 220.043,182.827 220.052,183.425 220.462 C 184.979 221.527,189.444 223.045,190.887 222.998 C 192.296 222.952,192.269 222.932,190.430 222.659 C 188.599 222.387,183.203 220.223,183.203 219.761 C 183.203 219.508,184.704 220.059,186.388 220.929 C 187.548 221.529,187.599 221.526,187.345 220.862 C 187.091 220.201,187.117 220.198,187.808 220.824 C 188.211 221.188,188.653 221.373,188.792 221.234 C 188.931 221.095,189.155 221.271,189.290 221.624 C 189.462 222.072,189.967 222.250,190.960 222.214 L 192.383 222.163 191.016 221.916 C 189.820 221.700,189.747 221.625,190.430 221.319 C 190.859 221.127,191.356 221.002,191.533 221.041 C 191.710 221.081,191.744 220.933,191.608 220.713 C 191.468 220.488,191.722 220.313,192.188 220.313 C 192.643 220.313,192.932 220.446,192.831 220.610 C 192.428 221.262,193.685 222.218,195.140 222.367 C 196.499 222.506,196.440 222.533,194.629 222.591 C 191.835 222.680,192.015 223.273,194.832 223.256 L 197.085 223.242 196.946 222.049 C 196.853 221.251,197.037 220.668,197.500 220.291 C 198.120 219.786,198.166 219.800,197.933 220.419 C 197.716 220.999,197.793 221.048,198.407 220.719 C 198.964 220.421,199.196 220.472,199.372 220.930 C 199.508 221.284,199.800 221.412,200.078 221.241 C 201.130 220.590,207.021 220.845,206.416 221.515 C 205.587 222.433,205.717 222.583,207.298 222.538 C 208.109 222.515,208.805 222.704,208.894 222.970 C 208.980 223.230,209.212 223.343,209.408 223.222 C 209.605 223.100,209.766 223.103,209.766 223.229 C 209.766 223.662,207.608 224.290,205.078 224.593 C 202.580 224.892,202.570 224.898,204.492 224.936 C 205.593 224.958,207.383 224.625,208.594 224.175 C 209.775 223.735,211.037 223.351,211.397 223.322 C 211.757 223.294,211.967 223.132,211.862 222.963 C 211.758 222.794,211.853 222.656,212.074 222.656 C 212.295 222.656,212.384 222.419,212.273 222.128 C 212.158 221.830,212.546 221.290,213.164 220.888 C 214.185 220.224,214.220 220.222,213.689 220.870 C 212.964 221.753,212.827 222.650,213.413 222.676 C 213.663 222.687,215.042 222.827,216.477 222.987 C 218.084 223.166,219.000 223.136,218.861 222.910 C 218.731 222.700,219.071 222.627,219.657 222.738 C 220.290 222.860,220.586 222.783,220.435 222.538 C 220.285 222.296,220.517 222.228,221.033 222.363 C 221.497 222.484,221.793 222.450,221.692 222.286 C 221.433 221.866,223.408 221.030,223.918 221.344 C 224.162 221.495,224.227 221.423,224.073 221.174 C 223.762 220.670,225.140 219.816,225.597 220.229 C 225.767 220.382,225.797 220.315,225.662 220.079 C 225.391 219.603,227.438 217.450,227.859 217.768 C 228.005 217.878,228.042 217.857,227.941 217.720 C 227.840 217.583,228.118 216.964,228.560 216.344 C 230.149 214.112,232.366 203.906,231.261 203.906 C 231.054 203.906,230.085 200.447,229.948 199.219 C 229.912 198.896,229.795 198.545,229.688 198.438 C 229.103 197.853,226.850 194.303,226.786 193.865 C 226.745 193.583,226.466 193.134,226.167 192.867 C 225.719 192.468,225.720 192.520,226.177 193.164 C 226.481 193.594,225.948 193.154,224.993 192.188 C 224.039 191.221,223.298 190.298,223.347 190.137 C 223.397 189.976,223.287 189.888,223.103 189.941 C 222.649 190.074,219.141 187.545,219.141 187.085 C 219.141 186.884,219.009 186.740,218.848 186.765 C 218.072 186.887,217.556 186.680,217.771 186.333 C 217.912 186.103,217.737 186.051,217.339 186.204 C 216.936 186.359,216.765 186.305,216.911 186.069 C 217.044 185.853,216.941 185.669,216.682 185.659 C 215.798 185.624,212.893 184.112,213.173 183.832 C 213.327 183.678,213.150 183.668,212.781 183.810 C 212.412 183.952,212.109 183.890,212.109 183.672 C 212.109 183.454,211.730 183.375,211.267 183.497 C 210.690 183.647,210.513 183.574,210.704 183.265 C 210.873 182.991,210.726 182.813,210.333 182.813 C 209.900 182.813,209.761 183.019,209.919 183.430 C 210.050 183.770,210.156 184.122,210.156 184.212 C 210.156 184.301,210.403 184.375,210.704 184.375 C 211.006 184.375,211.810 185.034,212.492 185.840 C 213.173 186.646,213.615 187.041,213.473 186.719 C 213.331 186.396,213.714 186.665,214.323 187.316 C 215.970 189.077,217.901 190.644,217.198 189.648 C 216.894 189.219,217.836 190.010,219.290 191.406 C 222.030 194.037,224.038 196.472,223.026 195.935 C 222.715 195.770,222.900 196.017,223.438 196.484 C 223.975 196.951,224.196 197.221,223.930 197.084 C 223.611 196.919,223.525 197.040,223.678 197.438 C 223.806 197.771,224.067 197.945,224.260 197.826 C 224.625 197.601,224.650 197.662,224.803 199.164 C 224.855 199.671,225.102 200.212,225.353 200.367 C 225.613 200.528,225.690 200.954,225.533 201.365 C 225.329 201.896,225.390 201.999,225.772 201.764 C 226.170 201.518,226.225 201.687,226.018 202.514 C 225.842 203.213,225.890 203.494,226.156 203.330 C 226.424 203.164,226.560 204.115,226.557 206.129 C 226.552 208.366,226.442 209.023,226.142 208.594 C 225.840 208.161,225.802 208.352,225.995 209.326 C 226.194 210.334,226.139 210.573,225.763 210.340 C 225.441 210.141,225.368 210.193,225.551 210.490 C 225.917 211.083,225.441 212.577,224.976 212.290 C 224.779 212.168,224.734 212.370,224.876 212.739 C 225.049 213.191,224.985 213.318,224.680 213.130 C 224.375 212.941,224.312 213.069,224.485 213.520 C 224.673 214.011,224.604 214.105,224.225 213.871 C 223.901 213.671,223.801 213.703,223.958 213.956 C 224.299 214.508,222.699 216.479,222.174 216.154 C 221.927 216.001,221.868 216.078,222.030 216.342 C 222.365 216.884,219.195 218.976,217.077 219.610 C 214.973 220.241,214.587 219.673,215.741 217.642 C 216.249 216.746,216.739 216.087,216.829 216.176 C 216.919 216.265,217.013 215.790,217.038 215.120 C 217.063 214.450,217.257 213.844,217.469 213.773 C 217.682 213.702,217.767 213.185,217.660 212.624 C 217.553 212.062,217.622 211.699,217.814 211.817 C 218.010 211.938,218.166 210.433,218.169 208.394 C 218.172 206.283,218.023 204.849,217.815 204.978 C 217.607 205.106,217.561 204.674,217.707 203.948 C 217.884 203.059,217.828 202.776,217.511 202.971 C 217.208 203.158,217.135 202.976,217.285 202.405 C 217.406 201.942,217.327 201.563,217.109 201.563 C 216.891 201.563,216.814 201.299,216.938 200.977 C 217.062 200.654,216.974 200.391,216.743 200.391 C 216.512 200.391,216.427 200.118,216.555 199.784 C 216.703 199.398,216.629 199.276,216.351 199.448 C 216.093 199.608,215.985 199.506,216.087 199.200 C 216.182 198.915,215.928 198.349,215.522 197.943 C 215.116 197.537,214.883 196.946,215.004 196.629 C 215.129 196.305,215.056 196.158,214.839 196.292 C 214.485 196.511,214.280 195.973,214.417 195.186 C 214.447 195.009,214.328 194.953,214.150 195.063 C 213.973 195.172,213.604 194.903,213.331 194.465 C 212.922 193.811,212.926 193.716,213.350 193.933 C 213.634 194.079,213.562 193.948,213.190 193.643 C 212.817 193.337,212.641 192.944,212.799 192.770 C 212.957 192.596,212.892 192.564,212.654 192.699 C 212.417 192.834,211.802 192.468,211.287 191.885 L 210.352 190.826 211.328 191.596 C 211.934 192.074,211.794 191.813,210.959 190.910 C 209.614 189.455,208.976 189.002,209.620 189.960 C 209.808 190.238,209.697 190.189,209.375 189.850 C 208.617 189.053,206.944 187.891,206.554 187.891 C 205.976 187.891,206.252 188.980,206.892 189.225 C 207.245 189.361,207.423 189.582,207.289 189.717 C 207.154 189.851,207.348 190.212,207.721 190.518 C 208.173 190.889,208.203 190.989,207.813 190.820 C 207.490 190.681,207.568 190.844,207.985 191.182 C 208.402 191.520,208.588 191.797,208.398 191.797 C 208.209 191.797,208.341 192.017,208.693 192.285 C 209.044 192.554,209.386 193.022,209.451 193.327 C 209.517 193.631,209.892 194.216,210.284 194.627 C 210.677 195.037,210.902 195.623,210.785 195.929 C 210.667 196.234,210.752 196.484,210.973 196.484 C 211.194 196.484,211.266 196.660,211.133 196.875 C 211.000 197.090,211.088 197.266,211.328 197.266 C 211.568 197.266,211.656 197.441,211.523 197.656 C 211.391 197.871,211.463 198.047,211.683 198.047 C 211.904 198.047,211.973 198.339,211.835 198.697 C 211.653 199.172,211.727 199.260,212.109 199.023 C 212.492 198.787,212.566 198.875,212.383 199.350 C 212.246 199.708,212.323 200.000,212.554 200.000 C 212.785 200.000,212.873 200.264,212.749 200.586 C 212.626 200.908,212.709 201.172,212.934 201.172 C 213.187 201.172,213.248 201.658,213.093 202.441 C 212.916 203.341,212.956 203.546,213.231 203.145 C 213.496 202.758,213.580 203.742,213.497 206.270 C 213.394 209.411,213.417 209.582,213.650 207.422 L 213.925 204.883 213.989 207.031 C 214.078 209.984,213.672 212.326,213.188 211.651 C 212.917 211.272,212.879 211.325,213.049 211.847 C 213.367 212.828,212.901 214.506,212.398 214.195 C 212.172 214.055,212.104 214.128,212.246 214.358 C 212.583 214.904,212.126 216.072,211.682 215.798 C 211.492 215.680,211.427 215.819,211.537 216.105 C 211.793 216.773,209.193 219.316,208.618 218.960 C 208.377 218.811,208.232 218.908,208.291 219.178 C 208.456 219.925,204.878 220.820,202.908 220.525 C 200.048 220.096,196.227 216.570,196.645 214.746 C 196.740 214.334,196.636 214.164,196.386 214.318 C 196.120 214.483,196.050 214.273,196.191 213.732 C 196.332 213.192,196.262 212.982,195.996 213.146 C 195.729 213.311,195.659 213.101,195.800 212.561 C 195.939 212.031,195.870 211.811,195.614 211.969 C 195.342 212.137,195.283 211.587,195.435 210.310 C 195.590 209.017,195.556 208.715,195.332 209.375 C 195.114 210.015,194.996 208.668,194.988 205.469 C 194.981 202.447,195.103 200.884,195.309 201.367 C 195.519 201.863,195.569 201.363,195.445 200.000 C 195.297 198.383,195.354 197.996,195.677 198.438 C 196.000 198.880,196.048 198.594,195.872 197.266 C 195.700 195.964,195.748 195.660,196.056 196.094 C 196.381 196.551,196.474 196.359,196.478 195.215 C 196.482 194.409,196.309 193.750,196.094 193.750 C 195.879 193.750,195.703 194.014,195.703 194.336 C 195.703 194.658,195.352 195.273,194.922 195.703 C 194.492 196.133,194.272 196.487,194.434 196.490 C 194.595 196.494,194.464 196.662,194.144 196.865 C 193.824 197.067,193.543 197.460,193.520 197.738 C 193.497 198.015,193.452 198.560,193.419 198.949 C 193.386 199.337,193.186 199.548,192.973 199.417 C 192.752 199.280,192.686 199.437,192.820 199.784 C 192.948 200.118,192.874 200.391,192.656 200.391 C 192.439 200.391,192.360 200.770,192.481 201.233 C 192.616 201.749,192.548 201.981,192.305 201.831 C 192.062 201.680,191.975 201.994,192.079 202.649 C 192.213 203.486,192.160 203.587,191.828 203.125 C 191.510 202.682,191.470 202.864,191.663 203.869 C 191.810 204.633,191.768 205.106,191.565 204.981 C 190.851 204.539,191.480 211.487,192.441 214.648 C 192.964 216.367,193.428 218.037,193.473 218.359 C 193.518 218.682,193.867 219.178,194.249 219.463 C 194.630 219.748,194.894 220.275,194.835 220.635 C 194.770 221.029,194.988 221.291,195.383 221.294 C 195.743 221.297,196.168 221.429,196.327 221.587 C 196.485 221.745,195.970 221.875,195.182 221.875 C 193.765 221.875,193.126 221.001,194.238 220.586 C 194.862 220.353,194.286 220.161,191.262 219.593 C 187.626 218.910,182.150 214.670,183.041 213.228 C 183.231 212.921,183.153 212.875,182.806 213.090 C 182.428 213.324,182.358 213.230,182.546 212.739 C 182.688 212.370,182.643 212.168,182.446 212.290 C 181.963 212.588,181.564 211.229,181.864 210.309 C 182.068 209.685,182.034 209.661,181.646 210.156 C 181.283 210.619,181.236 210.374,181.419 208.984 C 181.583 207.748,181.536 207.400,181.262 207.813 C 180.978 208.238,180.871 207.811,180.871 206.250 C 180.871 204.624,180.972 204.244,181.288 204.688 C 181.597 205.123,181.644 204.847,181.472 203.613 C 181.345 202.697,181.402 201.953,181.599 201.953 C 181.797 201.953,181.859 201.574,181.738 201.111 C 181.573 200.479,181.647 200.349,182.036 200.589 C 182.413 200.822,182.487 200.732,182.305 200.259 C 182.000 199.465,182.374 198.362,182.849 198.655 C 183.039 198.773,183.078 198.567,182.937 198.198 C 182.749 197.708,182.818 197.614,183.197 197.848 C 183.548 198.065,183.621 198.017,183.425 197.700 C 182.908 196.863,191.318 187.548,192.135 188.053 C 192.316 188.165,192.886 187.779,193.400 187.195 L 194.336 186.133 193.164 187.102 C 192.520 187.635,192.871 187.111,193.945 185.938 C 195.020 184.765,196.031 183.743,196.194 183.666 C 196.356 183.590,196.390 183.366,196.268 183.170 C 196.147 182.973,196.244 182.813,196.484 182.813 C 196.725 182.813,196.812 182.637,196.680 182.422 C 196.547 182.207,196.635 182.031,196.875 182.031 C 197.115 182.031,197.203 181.855,197.070 181.641 C 196.938 181.426,196.996 181.250,197.199 181.250 C 197.403 181.250,197.556 181.030,197.540 180.762 C 197.478 179.712,198.161 176.977,198.442 177.151 C 198.826 177.389,198.727 173.313,198.342 173.025 C 198.182 172.906,198.013 172.347,197.966 171.784 C 197.919 171.220,197.743 170.845,197.573 170.950 C 197.404 171.054,197.266 170.973,197.266 170.768 C 197.266 170.563,196.993 170.291,196.659 170.163 C 196.312 170.030,196.155 170.096,196.292 170.317 C 196.423 170.529,196.359 170.703,196.149 170.703 C 195.940 170.703,195.710 170.534,195.638 170.327 C 195.566 170.121,195.474 171.180,195.432 172.680 M152.402 175.992 C 151.905 176.623,151.522 177.909,151.349 179.531 C 151.119 181.679,150.976 182.036,150.440 181.807 C 145.352 179.635,140.234 180.243,140.234 183.021 C 140.234 184.170,140.651 184.443,144.336 185.715 C 148.310 187.087,148.285 187.054,146.882 188.990 C 142.938 194.436,145.435 198.158,149.741 193.253 C 150.945 191.882,152.534 190.435,153.274 190.037 L 154.619 189.312 156.028 190.549 C 159.680 193.755,162.981 192.052,160.886 188.043 L 159.961 186.273 161.048 185.396 C 162.512 184.216,165.696 183.112,167.799 183.055 C 168.764 183.028,169.600 182.796,169.705 182.524 C 169.809 182.258,169.768 182.059,169.615 182.082 C 168.763 182.209,168.301 181.967,168.484 181.490 C 168.622 181.129,168.473 181.005,168.037 181.118 C 166.639 181.480,165.863 180.360,166.428 178.797 C 168.098 174.180,164.205 174.437,159.589 179.250 C 157.587 181.336,157.250 181.282,156.690 178.780 C 155.855 175.046,154.062 173.881,152.402 175.992 M190.066 189.814 C 189.419 190.529,189.419 190.561,190.071 190.465 C 190.447 190.410,190.798 190.072,190.851 189.714 C 190.972 188.887,190.896 188.897,190.066 189.814 M211.436 221.307 C 211.388 221.489,210.861 221.676,210.264 221.724 C 209.653 221.772,209.503 221.722,209.920 221.608 C 210.517 221.444,210.555 221.337,210.115 221.053 C 209.730 220.804,209.856 220.741,210.547 220.839 C 211.084 220.914,211.484 221.125,211.436 221.307 M198.617 222.292 C 198.475 222.521,198.440 222.789,198.538 222.887 C 198.810 223.159,200.000 222.620,200.000 222.224 C 200.000 221.735,198.928 221.787,198.617 222.292 M198.438 223.983 C 198.975 224.312,199.732 224.588,200.121 224.596 C 200.554 224.604,200.719 224.784,200.549 225.060 C 200.364 225.358,200.443 225.404,200.780 225.196 C 201.343 224.848,200.293 223.828,199.371 223.828 C 199.108 223.828,198.570 223.728,198.176 223.606 C 197.783 223.484,197.900 223.653,198.438 223.983 M157.129 240.637 C 155.917 241.124,156.029 241.303,157.418 241.100 C 158.060 241.005,158.489 240.772,158.371 240.581 C 158.253 240.390,158.123 240.246,158.082 240.259 C 158.041 240.273,157.612 240.443,157.129 240.637 " stroke="none" fill="#eed29f" fill-rule="evenodd"></path><path id="path2" d="M160.323 91.747 C 151.028 94.919,147.547 104.499,153.647 110.116 L 154.664 111.051 151.258 113.346 C 149.384 114.608,147.900 115.826,147.959 116.052 C 148.018 116.279,147.910 116.368,147.718 116.249 C 147.407 116.057,143.750 118.611,143.750 119.021 C 143.750 119.112,143.953 119.061,144.201 118.908 C 144.483 118.734,144.546 118.801,144.369 119.087 C 144.214 119.338,143.939 119.453,143.758 119.341 C 143.356 119.092,135.969 126.093,133.123 129.420 C 131.986 130.749,131.326 131.660,131.657 131.445 C 131.987 131.230,131.792 131.494,131.223 132.031 C 130.039 133.149,128.129 135.832,128.822 135.404 C 129.075 135.247,128.977 135.654,128.606 136.307 C 128.234 136.961,127.716 137.496,127.455 137.498 C 127.194 137.499,126.781 137.873,126.537 138.328 C 126.179 138.999,126.195 139.098,126.621 138.850 C 126.911 138.682,126.665 139.004,126.074 139.566 C 124.943 140.642,124.667 141.231,125.488 140.814 C 125.757 140.678,125.635 140.844,125.218 141.182 C 124.801 141.520,124.582 141.797,124.730 141.797 C 124.879 141.797,124.635 142.162,124.189 142.608 C 123.742 143.055,123.477 143.679,123.598 143.996 C 123.722 144.320,123.650 144.467,123.433 144.333 C 123.051 144.097,122.887 144.626,123.027 145.645 C 123.067 145.935,122.912 146.056,122.682 145.915 C 122.273 145.662,122.103 146.166,122.245 147.207 C 122.285 147.497,122.149 147.630,121.942 147.502 C 121.503 147.231,120.988 148.341,121.311 148.863 C 121.432 149.059,121.334 149.219,121.094 149.219 C 120.854 149.219,120.766 149.395,120.898 149.609 C 121.031 149.824,120.935 150.000,120.684 150.000 C 120.433 150.000,120.333 150.272,120.462 150.606 C 120.614 151.002,120.537 151.115,120.242 150.933 C 119.937 150.744,119.873 150.872,120.046 151.323 C 120.199 151.722,120.147 151.897,119.917 151.755 C 119.549 151.527,119.357 152.331,119.511 153.457 C 119.556 153.784,119.399 153.871,119.100 153.686 C 118.763 153.478,118.693 153.584,118.867 154.037 C 119.005 154.398,118.927 154.688,118.692 154.688 C 118.459 154.688,118.360 155.039,118.473 155.469 C 118.596 155.940,118.520 156.154,118.281 156.006 C 118.030 155.851,117.987 156.083,118.164 156.641 C 118.367 157.279,118.313 157.439,117.969 157.227 C 117.624 157.014,117.571 157.174,117.773 157.813 C 117.948 158.363,117.907 158.601,117.662 158.450 C 117.173 158.148,116.718 159.847,117.029 160.809 C 117.227 161.417,117.193 161.436,116.802 160.938 C 116.431 160.464,116.389 160.563,116.586 161.459 C 116.761 162.257,116.699 162.486,116.365 162.279 C 116.038 162.077,115.960 162.293,116.098 163.016 C 116.205 163.579,116.165 163.960,116.009 163.863 C 115.599 163.609,115.233 166.272,115.481 167.717 C 115.644 168.672,115.596 168.815,115.262 168.359 C 114.937 167.916,114.889 168.201,115.065 169.531 C 115.236 170.823,115.188 171.134,114.885 170.703 C 114.583 170.274,114.524 170.691,114.665 172.266 C 114.771 173.447,114.723 174.113,114.558 173.744 C 114.393 173.376,114.258 176.527,114.258 180.745 C 114.258 184.964,114.356 187.902,114.477 187.274 C 114.692 186.155,114.700 186.161,114.886 187.591 C 114.995 188.427,114.901 189.113,114.667 189.198 C 114.441 189.280,114.406 189.502,114.589 189.693 C 114.776 189.889,115.792 189.100,116.932 187.873 C 118.039 186.681,118.770 185.989,118.555 186.334 C 118.340 186.680,118.867 186.203,119.727 185.275 C 120.586 184.347,121.575 183.589,121.925 183.591 C 122.274 183.592,122.802 183.286,123.097 182.910 C 123.564 182.314,123.555 182.277,123.028 182.617 C 122.696 182.832,122.758 182.701,123.167 182.326 C 123.575 181.951,124.047 181.730,124.215 181.834 C 124.383 181.938,124.760 181.717,125.053 181.343 C 125.535 180.729,125.521 180.715,124.902 181.200 C 124.526 181.495,124.219 181.639,124.219 181.520 C 124.219 181.401,124.790 180.903,125.488 180.413 C 126.530 179.683,126.652 179.656,126.172 180.266 C 125.724 180.834,125.884 180.790,126.855 180.079 C 128.100 179.169,128.601 178.574,127.637 179.153 C 127.321 179.343,127.343 179.207,127.699 178.768 C 128.002 178.395,128.480 178.178,128.761 178.285 C 129.042 178.393,129.393 178.286,129.540 178.048 C 129.702 177.785,129.630 177.724,129.357 177.892 C 129.109 178.046,128.906 178.096,128.906 178.005 C 128.906 177.913,129.653 177.366,130.566 176.790 L 132.227 175.741 131.055 176.772 C 129.704 177.961,130.953 177.392,132.422 176.149 C 132.959 175.695,133.179 175.436,132.910 175.575 C 132.642 175.714,132.422 175.752,132.422 175.661 C 132.422 175.259,135.742 173.347,136.603 173.253 C 137.127 173.195,137.762 172.924,138.016 172.650 C 138.376 172.259,138.357 172.219,137.928 172.464 C 137.568 172.669,137.472 172.627,137.647 172.343 C 137.795 172.104,138.160 172.003,138.459 172.118 C 138.758 172.232,139.187 171.982,139.412 171.561 C 139.638 171.140,140.100 170.688,140.439 170.558 C 140.821 170.412,140.958 170.481,140.798 170.740 C 140.655 170.970,141.086 170.876,141.754 170.530 C 142.422 170.185,142.969 169.812,142.969 169.703 C 142.969 169.593,142.617 169.692,142.188 169.922 C 141.758 170.152,141.406 170.249,141.406 170.139 C 141.406 170.028,142.128 169.570,143.010 169.120 C 144.029 168.600,144.516 168.490,144.348 168.819 C 144.192 169.123,144.296 169.094,144.600 168.750 C 144.884 168.428,145.293 168.161,145.508 168.157 C 146.288 168.141,150.000 165.991,150.000 165.553 C 150.000 165.306,150.114 165.219,150.254 165.359 C 150.394 165.498,150.759 165.308,151.065 164.935 C 151.370 164.563,151.495 164.500,151.342 164.797 C 151.155 165.157,151.243 165.270,151.606 165.139 C 151.904 165.030,152.100 164.731,152.041 164.473 C 151.982 164.215,152.098 164.106,152.299 164.230 C 152.783 164.529,153.955 164.066,153.711 163.672 C 153.489 163.313,154.471 162.852,155.829 162.676 C 156.349 162.609,156.931 162.275,157.122 161.933 C 157.313 161.591,157.634 161.413,157.835 161.538 C 158.276 161.810,162.891 159.797,162.891 159.332 C 162.891 159.152,163.409 158.736,164.043 158.408 C 165.315 157.751,166.160 157.605,165.234 158.203 C 164.912 158.411,164.824 158.578,165.039 158.574 C 165.590 158.563,167.467 157.456,166.992 157.422 C 166.517 157.388,168.394 156.281,168.945 156.270 C 169.160 156.266,169.072 156.452,168.750 156.683 C 168.263 157.034,168.285 157.066,168.880 156.873 C 169.273 156.745,169.679 156.641,169.782 156.641 C 169.884 156.641,169.859 156.465,169.727 156.250 C 169.594 156.035,169.715 155.833,169.996 155.802 C 170.278 155.770,170.771 155.708,171.094 155.664 C 171.416 155.620,171.910 155.558,172.191 155.527 C 172.472 155.495,172.595 155.295,172.464 155.083 C 172.322 154.853,172.497 154.801,172.895 154.954 C 173.386 155.142,173.480 155.072,173.246 154.694 C 173.032 154.348,173.077 154.269,173.381 154.457 C 173.977 154.826,175.467 154.346,175.178 153.878 C 175.055 153.679,175.184 153.490,175.465 153.458 C 175.746 153.426,176.240 153.364,176.563 153.320 C 176.885 153.277,177.379 153.215,177.660 153.183 C 177.941 153.151,178.074 152.968,177.955 152.775 C 177.836 152.583,178.016 152.319,178.355 152.189 C 179.299 151.827,179.557 151.919,178.906 152.387 C 178.435 152.726,178.473 152.755,179.102 152.536 C 181.612 151.662,182.007 151.449,181.787 151.092 C 181.633 150.843,181.866 150.800,182.422 150.977 C 182.974 151.152,183.211 151.110,183.059 150.864 C 182.742 150.352,183.803 149.955,184.634 150.274 C 185.042 150.430,185.189 150.368,185.027 150.107 C 184.699 149.575,185.737 149.166,186.588 149.493 C 186.995 149.649,187.142 149.587,186.980 149.326 C 186.716 148.899,187.839 148.256,188.207 148.624 C 188.319 148.736,188.177 148.828,187.891 148.828 C 187.604 148.828,187.462 148.920,187.574 149.033 C 187.929 149.388,189.070 148.765,188.816 148.355 C 188.664 148.109,188.901 148.067,189.453 148.242 C 190.047 148.431,190.246 148.382,190.068 148.093 C 189.902 147.825,190.029 147.752,190.409 147.898 C 190.743 148.026,191.016 147.941,191.016 147.710 C 191.016 147.479,191.308 147.402,191.666 147.540 C 192.141 147.722,192.229 147.648,191.992 147.266 C 191.756 146.883,191.844 146.809,192.319 146.992 C 193.150 147.311,194.211 146.914,193.894 146.402 C 193.742 146.156,193.979 146.114,194.531 146.289 C 195.170 146.492,195.330 146.438,195.117 146.094 C 194.904 145.749,195.065 145.696,195.703 145.898 C 196.297 146.087,196.496 146.039,196.318 145.749 C 196.161 145.496,196.266 145.403,196.574 145.521 C 196.861 145.631,197.793 145.466,198.645 145.154 C 199.498 144.842,199.932 144.562,199.609 144.531 C 199.287 144.501,199.711 144.224,200.552 143.916 C 201.392 143.608,202.169 143.445,202.277 143.553 C 202.385 143.661,202.240 143.750,201.953 143.750 C 201.667 143.750,201.524 143.842,201.637 143.955 C 201.992 144.309,203.132 143.687,202.879 143.277 C 202.727 143.031,202.964 142.989,203.516 143.164 C 204.067 143.339,204.305 143.297,204.153 143.052 C 204.020 142.836,204.188 142.554,204.526 142.424 C 205.471 142.061,205.728 142.153,205.078 142.621 C 204.591 142.971,204.613 143.003,205.208 142.810 C 205.601 142.683,206.095 142.578,206.305 142.578 C 206.515 142.578,206.566 142.384,206.419 142.146 C 206.237 141.851,206.432 141.802,207.031 141.992 C 207.690 142.201,207.833 142.146,207.602 141.772 C 207.380 141.413,207.484 141.347,207.975 141.535 C 208.938 141.905,210.792 141.411,210.096 140.970 C 209.755 140.754,209.731 140.635,210.027 140.631 C 210.278 140.628,210.805 140.521,211.199 140.393 C 211.809 140.195,211.828 140.229,211.328 140.625 C 210.807 141.038,210.807 141.069,211.328 140.907 C 215.424 139.636,216.340 139.271,216.161 138.981 C 216.045 138.794,216.431 138.761,217.018 138.909 C 217.820 139.110,218.010 139.055,217.783 138.687 C 217.559 138.324,217.708 138.270,218.359 138.477 C 218.974 138.672,219.155 138.621,218.962 138.307 C 218.766 137.992,219.012 137.931,219.791 138.102 C 220.681 138.297,220.784 138.255,220.313 137.891 C 219.840 137.524,219.934 137.482,220.801 137.671 C 221.457 137.814,221.875 137.740,221.875 137.481 C 221.875 137.226,222.206 137.162,222.705 137.320 C 223.219 137.483,223.443 137.435,223.294 137.193 C 222.981 136.686,224.553 136.295,225.793 136.571 C 226.578 136.746,226.648 136.703,226.172 136.338 C 225.711 135.985,225.877 135.942,226.953 136.133 C 228.015 136.321,228.189 136.278,227.734 135.938 C 227.279 135.597,227.454 135.554,228.516 135.742 C 229.577 135.931,229.752 135.887,229.297 135.547 C 228.842 135.207,229.017 135.163,230.078 135.352 C 231.140 135.540,231.314 135.496,230.859 135.156 C 230.405 134.817,230.569 134.777,231.592 134.979 C 232.595 135.177,232.838 135.123,232.608 134.750 C 232.381 134.383,232.571 134.328,233.373 134.529 C 234.107 134.713,234.357 134.662,234.174 134.366 C 233.989 134.066,234.367 134.003,235.411 134.159 C 236.517 134.324,236.708 134.286,236.133 134.016 C 235.246 133.599,236.406 133.399,239.063 133.511 C 240.192 133.559,240.294 133.505,239.648 133.198 C 239.085 132.931,239.412 132.881,240.820 133.019 C 242.293 133.162,242.581 133.113,241.992 132.817 C 241.404 132.522,241.634 132.483,242.921 132.661 C 244.143 132.830,244.552 132.772,244.357 132.455 C 244.162 132.141,244.570 132.074,245.772 132.224 C 247.039 132.382,247.266 132.339,246.680 132.052 C 246.105 131.770,246.466 131.714,248.047 131.843 C 249.686 131.976,249.964 131.929,249.219 131.647 C 248.496 131.374,248.901 131.321,250.781 131.445 C 252.658 131.569,253.066 131.517,252.344 131.244 C 251.620 130.971,252.025 130.917,253.906 131.039 C 255.487 131.141,256.077 131.086,255.469 130.893 C 254.744 130.663,255.248 130.540,257.422 130.416 C 259.033 130.324,260.527 130.371,260.742 130.520 C 261.280 130.893,264.844 131.185,264.844 130.856 C 264.844 130.710,264.451 130.255,263.972 129.846 C 263.108 129.109,263.105 129.109,263.672 129.883 C 264.241 130.659,264.238 130.659,263.358 129.907 C 262.871 129.491,262.551 128.945,262.648 128.694 C 262.804 128.288,256.753 121.875,256.214 121.875 C 256.096 121.875,255.168 121.079,254.153 120.106 C 253.136 119.132,252.112 118.457,251.874 118.604 C 251.629 118.755,251.551 118.694,251.694 118.462 C 251.833 118.238,251.508 117.767,250.973 117.417 C 250.438 117.066,250.000 116.910,250.000 117.070 C 250.000 117.230,249.718 116.959,249.374 116.467 C 249.013 115.953,248.507 115.665,248.181 115.790 C 247.870 115.909,247.711 115.852,247.828 115.663 C 248.096 115.230,246.195 113.954,245.719 114.248 C 245.525 114.368,245.239 114.260,245.084 114.009 C 244.895 113.704,244.972 113.657,245.313 113.867 C 245.661 114.083,245.730 114.031,245.529 113.706 C 245.366 113.443,244.993 113.320,244.700 113.433 C 244.406 113.546,244.045 113.442,243.897 113.204 C 243.735 112.941,243.807 112.880,244.080 113.049 C 244.328 113.202,244.531 113.242,244.531 113.138 C 244.531 112.680,240.198 110.523,239.788 110.777 C 239.520 110.942,239.437 110.889,239.586 110.648 C 239.725 110.423,239.567 110.134,239.235 110.006 C 238.838 109.854,238.715 109.940,238.876 110.258 C 239.010 110.524,238.844 110.401,238.506 109.984 C 238.167 109.567,237.888 109.391,237.885 109.593 C 237.881 109.796,237.746 109.753,237.585 109.499 C 237.105 108.745,232.392 106.676,231.731 106.930 C 231.361 107.072,231.221 107.003,231.376 106.753 C 231.701 106.227,227.177 104.503,226.527 104.905 C 226.245 105.079,226.152 105.036,226.298 104.800 C 226.567 104.364,222.373 103.013,221.817 103.356 C 221.634 103.469,221.484 103.355,221.484 103.102 C 221.484 102.836,221.157 102.729,220.703 102.848 C 220.273 102.960,219.922 102.915,219.922 102.749 C 219.922 102.322,211.826 100.662,210.910 100.902 C 210.495 101.010,210.244 100.955,210.352 100.780 C 210.938 99.833,194.428 99.492,188.672 100.332 C 183.376 101.105,178.910 102.034,179.090 102.325 C 179.181 102.472,178.694 102.524,178.007 102.441 C 177.002 102.318,176.873 102.377,177.344 102.738 C 177.815 103.100,177.719 103.142,176.855 102.954 C 176.265 102.825,175.781 102.882,175.781 103.081 C 175.781 103.280,175.430 103.351,175.000 103.238 C 174.570 103.126,174.219 103.225,174.219 103.458 C 174.219 103.691,173.955 103.781,173.633 103.657 C 173.311 103.533,173.047 103.637,173.047 103.888 C 173.047 104.138,172.867 104.232,172.647 104.096 C 172.124 103.773,167.188 105.417,167.188 105.914 C 167.188 106.124,167.034 106.201,166.846 106.085 C 166.658 105.969,164.945 106.486,163.040 107.234 C 158.587 108.982,157.977 108.943,160.074 107.046 C 162.161 105.158,168.881 101.858,173.149 100.624 C 176.283 99.718,176.364 99.664,176.235 98.577 C 175.546 92.785,167.457 89.312,160.323 91.747 M205.920 108.824 C 207.350 108.805,208.452 108.899,208.369 109.033 C 208.190 109.321,211.767 109.842,212.548 109.641 C 212.844 109.565,212.918 109.589,212.713 109.693 C 212.130 109.992,216.123 110.923,216.943 110.680 C 217.466 110.525,217.588 110.605,217.371 110.957 C 217.148 111.317,217.294 111.391,217.908 111.231 C 218.372 111.110,218.664 111.151,218.558 111.323 C 218.302 111.738,220.228 112.208,220.781 111.866 C 221.043 111.704,221.104 111.776,220.936 112.049 C 220.677 112.468,221.221 112.655,222.559 112.605 C 222.827 112.595,223.047 112.715,223.047 112.871 C 223.047 113.333,225.021 114.096,225.480 113.812 C 225.716 113.666,225.790 113.732,225.649 113.960 C 225.420 114.331,227.112 115.065,227.832 114.908 C 227.993 114.873,228.125 115.003,228.125 115.199 C 228.125 115.600,233.145 118.469,233.870 118.481 C 234.129 118.486,234.273 118.599,234.190 118.733 C 234.001 119.038,237.579 121.328,238.017 121.182 C 238.194 121.123,238.228 121.255,238.092 121.475 C 237.856 121.857,238.422 122.057,239.258 121.889 C 239.473 121.845,239.524 121.934,239.372 122.086 C 239.052 122.406,242.521 125.386,243.079 125.271 C 243.284 125.230,243.503 125.503,243.566 125.879 C 243.637 126.300,243.432 126.565,243.032 126.568 C 242.469 126.574,242.460 126.626,242.969 126.965 C 243.378 127.237,243.036 127.276,241.835 127.094 C 240.595 126.907,240.191 126.958,240.389 127.278 C 240.581 127.589,240.277 127.663,239.375 127.526 C 238.321 127.365,238.228 127.401,238.867 127.725 C 239.453 128.023,239.112 128.074,237.500 127.930 C 236.199 127.813,235.649 127.864,236.105 128.058 C 236.690 128.308,236.347 128.482,234.575 128.838 C 232.029 129.350,230.928 129.385,232.422 128.907 C 233.101 128.689,232.776 128.635,231.355 128.727 C 230.232 128.800,229.350 128.738,229.396 128.590 C 229.442 128.442,228.431 127.354,227.149 126.172 C 225.867 124.990,225.072 124.375,225.381 124.805 C 225.691 125.234,225.249 124.869,224.398 123.993 C 222.823 122.372,219.658 120.051,218.738 119.842 C 218.458 119.778,217.893 119.405,217.483 119.013 C 217.072 118.620,216.477 118.398,216.160 118.520 C 215.844 118.642,215.676 118.593,215.788 118.412 C 216.271 117.630,205.307 113.068,204.078 113.540 C 203.653 113.703,203.482 113.652,203.633 113.407 C 203.880 113.007,202.046 112.514,197.461 111.746 C 196.172 111.530,192.730 111.304,189.813 111.243 C 185.745 111.159,184.509 111.013,184.507 110.619 C 184.506 110.269,184.809 110.180,185.449 110.341 C 186.123 110.510,186.311 110.445,186.105 110.112 C 185.933 109.833,185.982 109.747,186.227 109.899 C 186.747 110.220,190.274 109.754,190.051 109.394 C 189.960 109.246,190.428 109.205,191.092 109.303 C 191.891 109.420,192.211 109.338,192.038 109.059 C 191.857 108.765,192.607 108.707,194.522 108.868 C 196.047 108.996,197.266 108.942,197.266 108.748 C 197.266 108.553,198.600 108.500,200.293 108.629 C 201.958 108.756,204.490 108.844,205.920 108.824 M259.385 125.293 L 262.305 128.320 259.277 125.400 C 257.612 123.794,256.250 122.432,256.250 122.373 C 256.250 122.087,256.673 122.481,259.385 125.293 M256.250 135.603 C 257.134 135.795,256.512 135.847,254.492 135.749 C 252.333 135.645,251.609 135.713,252.148 135.969 C 252.704 136.232,252.310 136.285,250.781 136.152 C 249.219 136.016,248.846 136.069,249.414 136.345 C 249.982 136.621,249.662 136.666,248.242 136.510 C 246.787 136.351,246.438 136.403,246.875 136.717 C 247.315 137.033,247.072 137.079,245.898 136.899 C 244.700 136.716,244.473 136.762,244.922 137.095 C 245.371 137.428,245.143 137.473,243.945 137.290 C 242.718 137.102,242.508 137.148,242.969 137.502 C 243.428 137.856,243.176 137.909,241.797 137.744 C 240.501 137.590,240.244 137.634,240.820 137.912 C 241.407 138.196,241.213 138.236,240.039 138.076 C 238.836 137.911,238.611 137.962,239.063 138.296 C 239.512 138.629,239.284 138.675,238.086 138.491 C 237.068 138.336,236.712 138.379,237.064 138.615 C 237.807 139.114,235.646 139.579,234.132 139.246 C 233.238 139.050,233.128 139.091,233.594 139.445 C 234.054 139.795,233.886 139.839,232.813 139.648 C 231.919 139.490,231.627 139.531,231.971 139.768 C 232.664 140.247,230.740 140.764,229.605 140.404 C 229.117 140.249,228.902 140.302,229.050 140.541 C 229.362 141.046,227.529 141.508,226.432 141.201 C 225.737 141.007,225.690 141.044,226.172 141.411 C 226.647 141.773,226.556 141.826,225.695 141.689 C 225.075 141.590,224.730 141.676,224.865 141.895 C 224.999 142.112,224.787 142.173,224.365 142.040 C 223.962 141.913,223.105 141.967,222.461 142.160 C 221.816 142.353,221.553 142.537,221.875 142.569 C 222.220 142.604,222.077 142.781,221.525 143.002 C 221.011 143.208,220.242 143.266,219.816 143.131 C 219.269 142.957,219.129 143.024,219.336 143.359 C 219.549 143.704,219.389 143.757,218.750 143.555 C 218.199 143.380,217.961 143.422,218.112 143.666 C 218.420 144.165,216.686 144.614,215.787 144.269 C 215.344 144.099,215.199 144.157,215.371 144.437 C 215.710 144.984,214.394 145.415,213.468 145.060 C 212.955 144.863,212.847 144.925,213.071 145.288 C 213.302 145.662,213.159 145.717,212.500 145.508 C 211.861 145.305,211.701 145.359,211.914 145.703 C 212.127 146.048,211.967 146.101,211.328 145.898 C 210.690 145.696,210.529 145.749,210.742 146.094 C 210.955 146.438,210.795 146.492,210.156 146.289 C 209.518 146.086,209.357 146.140,209.570 146.484 C 209.783 146.829,209.623 146.882,208.984 146.680 C 208.459 146.513,208.198 146.550,208.335 146.772 C 208.461 146.976,207.956 147.330,207.211 147.559 C 206.467 147.787,205.947 147.831,206.055 147.656 C 206.163 147.481,205.901 147.430,205.474 147.542 C 205.046 147.654,204.811 147.931,204.951 148.158 C 205.110 148.415,204.961 148.476,204.557 148.321 C 204.199 148.184,203.511 148.231,203.028 148.425 C 202.488 148.642,202.375 148.799,202.734 148.831 C 203.057 148.860,202.623 149.139,201.770 149.451 C 200.918 149.763,199.995 149.932,199.719 149.826 C 199.007 149.553,198.005 150.007,198.293 150.473 C 198.445 150.719,198.208 150.761,197.656 150.586 C 197.104 150.411,196.867 150.453,197.019 150.698 C 197.273 151.109,196.132 151.731,195.777 151.376 C 195.665 151.264,195.807 151.172,196.094 151.172 C 196.380 151.172,196.522 151.079,196.408 150.966 C 196.083 150.640,194.057 151.528,193.553 152.217 C 193.302 152.559,192.541 152.860,191.862 152.885 C 191.183 152.910,190.626 153.056,190.626 153.210 C 190.625 153.365,190.332 153.379,189.975 153.242 C 189.567 153.085,189.421 153.147,189.582 153.408 C 189.724 153.637,189.562 153.931,189.224 154.061 C 188.299 154.415,188.010 154.334,188.672 153.906 C 188.994 153.698,189.082 153.528,188.867 153.528 C 188.345 153.528,187.196 154.282,187.695 154.297 C 188.194 154.312,187.046 155.066,186.523 155.066 C 186.309 155.066,186.396 154.896,186.719 154.688 C 187.041 154.479,187.129 154.309,186.914 154.309 C 186.392 154.309,185.243 155.063,185.742 155.078 C 186.241 155.093,185.093 155.847,184.570 155.847 C 184.355 155.847,184.443 155.677,184.766 155.469 C 185.088 155.260,185.176 155.090,184.961 155.090 C 184.438 155.090,183.290 155.844,183.789 155.859 C 184.004 155.866,183.916 156.040,183.594 156.247 C 183.271 156.454,182.678 156.520,182.275 156.395 C 181.837 156.258,181.640 156.324,181.785 156.558 C 181.918 156.773,181.755 157.054,181.423 157.181 C 181.091 157.309,180.922 157.246,181.048 157.042 C 181.180 156.828,180.777 156.846,180.092 157.085 C 179.440 157.312,179.004 157.655,179.122 157.846 C 179.241 158.038,179.087 158.098,178.782 157.981 C 178.476 157.864,178.121 158.041,177.992 158.376 C 177.864 158.711,177.534 158.982,177.258 158.978 C 176.903 158.974,176.927 158.850,177.344 158.551 C 177.831 158.200,177.809 158.169,177.214 158.362 C 176.821 158.489,176.415 158.594,176.312 158.594 C 176.210 158.594,176.253 158.799,176.408 159.051 C 176.599 159.359,176.477 159.426,176.036 159.257 C 175.298 158.974,173.363 159.719,173.646 160.177 C 173.747 160.340,173.492 160.386,173.081 160.278 C 172.581 160.148,172.180 160.367,171.875 160.938 C 171.570 161.508,171.169 161.727,170.669 161.597 C 170.258 161.489,170.003 161.535,170.104 161.698 C 170.321 162.049,168.355 163.017,168.048 162.710 C 167.933 162.594,168.073 162.500,168.359 162.500 C 168.646 162.500,168.786 162.406,168.670 162.290 C 168.366 161.986,166.397 162.950,166.612 163.297 C 166.862 163.703,165.649 164.123,165.139 163.808 C 164.875 163.645,164.840 163.740,165.043 164.069 C 165.277 164.447,165.183 164.517,164.692 164.329 C 164.241 164.155,164.113 164.219,164.302 164.524 C 164.490 164.829,164.363 164.893,163.911 164.719 C 163.513 164.567,163.338 164.619,163.479 164.848 C 163.706 165.215,163.536 165.300,162.402 165.391 C 162.134 165.412,161.593 165.751,161.200 166.143 C 160.808 166.536,160.227 166.758,159.910 166.636 C 159.541 166.494,159.435 166.577,159.614 166.868 C 159.803 167.173,159.675 167.236,159.223 167.063 C 158.855 166.922,158.645 166.954,158.757 167.135 C 158.868 167.316,158.515 167.667,157.971 167.915 C 157.391 168.179,157.082 168.202,157.225 167.972 C 157.703 167.197,156.587 167.596,155.743 168.500 C 154.811 169.500,151.303 171.438,151.758 170.703 C 151.910 170.457,151.313 170.623,150.431 171.073 C 149.550 171.523,148.828 171.986,148.828 172.101 C 148.828 172.217,149.004 172.203,149.219 172.070 C 149.434 171.938,149.609 171.921,149.609 172.034 C 149.609 172.146,149.237 172.438,148.781 172.681 C 148.152 173.018,148.021 173.014,148.236 172.666 C 148.392 172.414,147.798 172.576,146.916 173.026 C 146.034 173.476,145.313 173.939,145.313 174.054 C 145.313 174.170,145.532 174.141,145.801 173.989 C 146.185 173.772,146.188 173.823,145.815 174.226 C 145.554 174.507,145.026 174.765,144.643 174.798 C 143.858 174.865,141.406 176.079,141.406 176.400 C 141.406 176.515,141.626 176.497,141.895 176.361 C 142.163 176.225,142.036 176.395,141.613 176.737 C 141.189 177.080,140.624 177.277,140.356 177.174 C 140.088 177.071,139.748 177.183,139.601 177.421 C 139.438 177.684,139.510 177.745,139.783 177.576 C 140.031 177.423,140.234 177.390,140.234 177.502 C 140.234 177.615,139.862 177.906,139.406 178.150 C 138.738 178.508,138.631 178.491,138.854 178.066 C 139.006 177.776,138.748 177.979,138.281 178.516 C 137.814 179.053,137.557 179.255,137.709 178.965 C 137.931 178.540,137.824 178.524,137.157 178.881 C 136.701 179.125,136.328 179.416,136.328 179.529 C 136.328 179.642,136.548 179.620,136.816 179.481 C 137.085 179.343,136.865 179.593,136.328 180.037 C 135.791 180.482,135.137 180.768,134.876 180.674 C 134.614 180.580,134.279 180.698,134.132 180.937 C 133.960 181.215,134.060 181.269,134.412 181.086 C 135.198 180.679,133.545 182.008,132.668 182.489 C 132.094 182.804,132.000 182.777,132.231 182.363 C 132.393 182.073,132.018 182.390,131.399 183.066 C 130.021 184.572,125.371 187.949,126.131 186.891 C 126.431 186.474,126.079 186.757,125.350 187.520 C 124.620 188.283,124.287 188.547,124.609 188.106 C 124.932 187.665,123.613 188.954,121.680 190.970 C 117.875 194.937,117.223 195.836,117.201 197.140 C 117.186 198.061,118.856 199.606,119.877 199.615 C 120.292 199.619,120.355 199.720,120.061 199.908 C 119.652 200.171,125.115 200.283,128.613 200.083 C 129.987 200.005,130.078 199.921,130.084 198.730 C 130.089 197.725,130.177 197.583,130.506 198.047 C 130.827 198.498,130.868 198.384,130.687 197.555 C 130.474 196.578,131.318 194.141,131.869 194.141 C 131.984 194.141,131.952 194.344,131.799 194.592 C 131.635 194.857,131.691 194.937,131.934 194.787 C 132.162 194.646,132.265 194.211,132.163 193.820 C 132.061 193.429,132.282 192.858,132.654 192.551 C 133.277 192.037,133.294 192.062,132.863 192.871 C 132.221 194.076,132.572 193.980,133.394 192.725 C 133.763 192.162,133.871 191.821,133.634 191.967 C 132.930 192.403,133.145 191.580,133.918 190.880 C 134.312 190.524,134.779 190.365,134.958 190.526 C 135.136 190.688,135.162 190.613,135.017 190.359 C 134.733 189.864,136.253 188.579,136.755 188.890 C 136.920 188.992,137.183 188.869,137.338 188.618 C 137.526 188.313,137.450 188.266,137.109 188.477 C 136.770 188.686,136.692 188.640,136.878 188.339 C 137.358 187.564,139.370 186.711,140.078 186.983 C 140.547 187.163,140.664 187.098,140.461 186.769 C 140.247 186.424,140.466 186.362,141.276 186.539 C 142.123 186.725,142.245 186.684,141.797 186.366 C 141.276 185.996,141.276 185.946,141.797 185.919 C 142.147 185.900,142.038 185.749,141.527 185.543 C 139.209 184.610,139.029 182.058,141.181 180.647 C 142.503 179.782,146.949 179.762,148.973 180.614 C 149.805 180.964,150.552 181.250,150.634 181.250 C 150.715 181.250,150.781 180.541,150.781 179.675 C 150.781 176.301,152.926 173.647,154.918 174.554 C 155.956 175.027,157.399 177.713,157.413 179.199 C 157.426 180.463,157.666 180.343,160.423 177.695 C 162.039 176.143,163.113 175.393,163.504 175.542 C 163.833 175.669,164.008 175.619,163.892 175.431 C 163.562 174.897,165.274 174.603,166.109 175.050 C 166.543 175.282,166.765 175.693,166.636 176.027 C 166.512 176.351,166.584 176.499,166.801 176.364 C 167.167 176.139,167.270 176.500,167.360 178.316 C 167.391 178.955,167.709 179.111,169.148 179.191 C 172.698 179.388,174.384 179.732,173.796 180.138 C 173.391 180.417,173.478 180.454,174.121 180.273 C 175.178 179.975,176.663 180.382,176.353 180.883 C 176.231 181.080,176.390 181.142,176.707 181.020 C 177.481 180.723,178.996 181.569,178.662 182.111 C 178.504 182.367,178.573 182.432,178.832 182.272 C 179.243 182.019,182.422 183.378,182.422 183.807 C 182.422 183.916,181.895 183.732,181.250 183.398 C 180.605 183.065,180.078 182.880,180.078 182.988 C 180.078 183.095,180.562 183.423,181.152 183.716 C 182.325 184.298,184.614 184.301,184.499 183.720 C 184.459 183.521,184.811 183.120,185.280 182.828 C 186.088 182.324,186.102 182.336,185.547 183.043 C 185.006 183.732,185.013 183.748,185.640 183.257 C 186.014 182.964,186.236 182.588,186.133 182.422 C 185.839 181.947,187.022 181.150,187.543 181.472 C 187.845 181.659,187.909 181.595,187.722 181.293 C 187.393 180.762,188.201 179.592,188.689 179.893 C 188.865 180.002,189.136 179.885,189.291 179.634 C 189.478 179.331,189.404 179.281,189.072 179.486 C 188.736 179.694,188.635 179.618,188.768 179.254 C 188.876 178.955,189.176 178.759,189.433 178.818 C 189.691 178.877,189.800 178.761,189.676 178.561 C 189.377 178.076,189.840 176.905,190.234 177.148 C 190.696 177.434,190.994 176.369,190.732 175.367 C 190.590 174.823,190.653 174.580,190.898 174.732 C 191.141 174.882,191.228 174.568,191.124 173.914 C 190.987 173.055,191.039 172.964,191.399 173.438 C 191.748 173.897,191.789 173.743,191.588 172.723 C 191.262 171.075,191.693 168.640,192.249 168.983 C 192.514 169.147,192.571 168.953,192.409 168.441 C 192.264 167.984,192.355 167.521,192.623 167.355 C 192.936 167.162,192.996 167.247,192.806 167.615 C 192.649 167.917,192.939 167.678,193.448 167.084 C 194.223 166.180,194.595 166.038,195.722 166.213 C 196.781 166.376,196.902 166.339,196.289 166.040 C 195.728 165.766,196.280 165.702,198.242 165.813 C 200.336 165.932,200.611 165.895,199.414 165.657 L 197.852 165.345 199.805 165.336 C 200.879 165.331,202.285 165.461,202.930 165.625 L 204.102 165.923 202.962 165.969 C 200.877 166.054,202.466 166.468,206.022 166.767 C 206.219 166.783,206.264 166.913,206.122 167.055 C 205.980 167.197,206.234 167.572,206.686 167.889 C 207.448 168.422,207.497 168.749,207.353 172.346 C 207.267 174.481,207.305 175.921,207.436 175.545 C 207.657 174.915,207.695 174.913,207.927 175.517 C 208.065 175.877,208.404 176.169,208.679 176.166 C 209.057 176.161,209.047 176.076,208.640 175.818 C 208.215 175.549,208.277 175.420,208.929 175.213 C 209.385 175.068,209.963 175.076,210.213 175.230 C 210.517 175.418,210.561 175.340,210.348 174.994 C 210.114 174.615,210.208 174.546,210.698 174.734 C 211.150 174.907,211.278 174.843,211.089 174.539 C 210.901 174.234,211.028 174.170,211.480 174.343 C 211.848 174.485,212.063 174.460,211.958 174.289 C 211.651 173.793,222.464 168.585,223.050 168.947 C 223.409 169.169,223.464 169.109,223.238 168.744 C 223.004 168.365,223.098 168.296,223.589 168.484 C 224.041 168.657,224.168 168.593,223.980 168.289 C 223.791 167.984,223.919 167.920,224.370 168.093 C 224.822 168.267,224.949 168.203,224.761 167.898 C 224.572 167.593,224.700 167.529,225.152 167.703 C 225.533 167.849,225.724 167.801,225.593 167.590 C 225.289 167.098,227.650 165.900,228.376 166.178 C 228.741 166.318,228.846 166.234,228.667 165.945 C 228.479 165.640,228.606 165.576,229.058 165.749 C 229.509 165.923,229.637 165.859,229.448 165.554 C 229.260 165.249,229.387 165.185,229.839 165.359 C 230.224 165.506,230.411 165.457,230.279 165.244 C 229.978 164.757,233.882 162.781,234.450 163.132 C 234.735 163.308,234.776 163.223,234.567 162.885 C 234.332 162.506,234.426 162.436,234.917 162.624 C 235.369 162.798,235.496 162.734,235.308 162.429 C 235.119 162.124,235.247 162.060,235.698 162.234 C 236.150 162.407,236.278 162.343,236.089 162.039 C 235.901 161.734,236.028 161.670,236.480 161.843 C 236.858 161.988,237.051 161.941,236.923 161.734 C 236.622 161.247,238.175 160.435,238.740 160.784 C 239.032 160.965,239.074 160.882,238.863 160.541 C 238.629 160.162,238.723 160.092,239.214 160.281 C 239.597 160.428,239.786 160.379,239.655 160.167 C 239.354 159.680,242.475 158.093,243.043 158.444 C 243.329 158.621,243.370 158.536,243.160 158.197 C 242.926 157.818,243.020 157.749,243.511 157.937 C 243.963 158.110,244.090 158.047,243.902 157.742 C 243.718 157.445,243.833 157.370,244.234 157.524 C 244.571 157.653,245.171 157.498,245.568 157.178 C 246.232 156.643,246.212 156.632,245.313 157.031 C 244.380 157.445,244.371 157.437,245.106 156.849 C 245.530 156.510,246.110 156.323,246.396 156.432 C 246.682 156.542,246.814 156.467,246.689 156.265 C 246.388 155.778,247.941 154.966,248.506 155.316 C 248.770 155.479,248.841 155.416,248.682 155.158 C 248.352 154.624,249.851 153.768,250.459 154.144 C 250.723 154.307,250.794 154.244,250.635 153.986 C 250.489 153.749,250.714 153.370,251.135 153.145 C 252.270 152.538,252.602 152.647,251.735 153.342 C 251.006 153.926,251.011 153.933,251.852 153.526 C 252.333 153.292,252.684 152.887,252.633 152.625 C 252.581 152.363,252.840 152.172,253.207 152.200 C 253.575 152.229,253.839 152.075,253.793 151.858 C 253.748 151.642,253.955 151.376,254.254 151.268 C 254.618 151.135,254.694 151.236,254.486 151.572 C 254.281 151.904,254.331 151.978,254.634 151.791 C 254.885 151.636,254.995 151.354,254.878 151.164 C 254.603 150.719,256.145 149.889,256.658 150.206 C 256.874 150.340,257.002 150.216,256.943 149.931 C 256.884 149.647,257.131 149.412,257.492 149.409 C 257.853 149.406,258.292 149.246,258.469 149.053 C 258.652 148.853,258.580 148.823,258.301 148.984 C 257.293 149.564,257.862 148.847,259.082 148.000 L 260.352 147.118 259.570 148.071 L 258.789 149.023 259.668 148.279 C 260.151 147.870,260.547 147.299,260.547 147.010 C 260.547 146.721,260.733 146.484,260.961 146.484 C 261.188 146.484,261.249 146.687,261.096 146.935 C 260.921 147.217,260.989 147.280,261.274 147.104 C 261.526 146.948,261.643 146.677,261.534 146.502 C 261.274 146.081,262.367 145.184,262.808 145.457 C 262.996 145.573,264.014 144.753,265.071 143.635 L 266.992 141.602 265.018 143.359 C 263.507 144.704,263.599 144.570,265.409 142.788 C 266.709 141.507,267.583 140.577,267.350 140.721 C 267.059 140.900,267.076 140.404,267.401 139.143 C 267.915 137.154,267.580 136.202,266.509 136.613 C 266.122 136.762,265.985 136.693,266.147 136.431 C 266.315 136.160,266.094 136.079,265.528 136.203 C 264.849 136.352,264.777 136.305,265.214 135.998 C 265.622 135.711,265.296 135.646,264.042 135.763 C 262.969 135.863,262.645 135.815,263.195 135.638 C 263.686 135.480,262.021 135.341,259.484 135.329 C 256.497 135.314,255.362 135.410,256.250 135.603 M231.934 164.286 C 230.473 165.078,230.562 165.408,232.031 164.648 C 232.676 164.315,233.203 163.959,233.203 163.857 C 233.203 163.606,233.161 163.620,231.934 164.286 M214.063 173.242 C 213.525 173.549,213.262 173.800,213.477 173.800 C 213.691 173.800,214.307 173.549,214.844 173.242 C 215.381 172.935,215.645 172.684,215.430 172.684 C 215.215 172.684,214.600 172.935,214.063 173.242 M113.789 180.469 C 113.789 181.650,113.862 182.134,113.952 181.543 C 114.041 180.952,114.041 179.985,113.952 179.395 C 113.862 178.804,113.789 179.287,113.789 180.469 M169.231 182.422 C 169.500 182.852,170.072 183.192,170.504 183.178 C 171.228 183.156,171.221 183.126,170.410 182.800 C 169.927 182.606,169.531 182.266,169.531 182.044 C 169.531 181.822,169.354 181.641,169.137 181.641 C 168.904 181.641,168.942 181.959,169.231 182.422 M168.750 183.593 C 167.139 183.743,165.029 184.173,164.063 184.549 C 163.096 184.925,162.010 185.254,161.650 185.278 C 161.290 185.303,161.073 185.450,161.168 185.604 C 161.263 185.758,161.176 185.986,160.974 186.110 C 160.771 186.236,161.044 187.119,161.585 188.087 C 164.096 192.579,159.740 194.802,155.741 191.070 C 154.663 190.065,154.628 190.059,153.460 190.729 C 152.808 191.103,152.070 191.293,151.821 191.150 C 151.571 191.007,151.497 191.034,151.657 191.210 C 152.023 191.614,151.202 192.643,150.741 192.358 C 150.553 192.242,150.493 192.390,150.607 192.688 C 150.911 193.481,147.434 196.564,146.408 196.412 C 145.956 196.344,145.222 195.800,144.778 195.202 L 143.970 194.116 144.751 191.882 C 145.220 190.541,145.734 189.691,146.037 189.756 C 146.315 189.815,146.426 189.675,146.284 189.446 C 146.143 189.216,146.255 188.753,146.534 188.417 C 146.959 187.905,146.917 187.714,146.274 187.235 C 145.853 186.921,145.540 186.537,145.578 186.382 C 145.617 186.227,145.002 186.187,144.211 186.293 L 142.773 186.486 144.113 186.700 L 145.452 186.914 144.308 188.138 C 142.828 189.721,139.733 191.362,140.467 190.174 C 140.641 189.892,140.574 189.829,140.288 190.006 C 140.037 190.161,139.915 190.424,140.017 190.590 C 140.120 190.756,139.596 191.482,138.852 192.202 C 137.351 193.658,137.001 193.386,138.379 191.834 C 138.900 191.247,138.972 191.064,138.556 191.383 C 138.170 191.680,137.474 192.466,137.009 193.129 C 136.298 194.143,136.280 194.242,136.895 193.750 C 137.298 193.428,137.546 193.340,137.446 193.555 C 137.346 193.770,136.862 194.798,136.370 195.840 C 135.879 196.881,135.563 198.068,135.670 198.477 C 135.777 198.885,135.705 199.121,135.510 199.001 C 134.682 198.489,135.268 200.857,136.705 203.829 C 138.265 207.057,139.190 208.246,138.088 205.610 C 137.505 204.214,137.868 202.823,138.683 203.327 C 138.856 203.434,139.461 203.345,140.029 203.129 C 140.596 202.913,140.974 202.876,140.868 203.047 C 140.763 203.218,140.821 203.591,140.998 203.877 C 141.431 204.579,142.216 204.043,141.912 203.253 C 141.707 202.718,141.901 202.660,143.199 202.862 C 144.039 202.992,144.507 203.003,144.238 202.884 C 143.539 202.576,143.635 201.953,144.381 201.953 C 144.837 201.953,144.963 202.214,144.835 202.886 C 144.657 203.815,145.314 204.071,145.985 203.334 C 146.152 203.150,146.069 203.126,145.801 203.281 C 145.474 203.469,145.313 203.282,145.313 202.716 C 145.313 202.105,145.484 201.935,145.930 202.107 C 146.270 202.237,146.632 202.344,146.735 202.344 C 146.837 202.344,146.820 202.507,146.696 202.707 C 146.573 202.907,146.677 203.198,146.929 203.354 C 147.205 203.525,147.282 203.467,147.122 203.209 C 146.977 202.975,147.153 202.618,147.513 202.416 C 147.897 202.201,148.070 201.796,147.932 201.435 C 147.769 201.011,147.869 200.887,148.255 201.036 C 148.705 201.208,148.724 201.413,148.351 202.090 C 147.636 203.390,147.599 204.050,148.274 203.490 C 148.579 203.236,148.828 202.781,148.828 202.477 C 148.828 202.056,149.004 202.020,149.571 202.323 C 150.216 202.669,150.286 202.606,150.104 201.849 C 149.758 200.414,150.668 201.572,151.106 203.125 C 151.385 204.112,151.502 204.248,151.527 203.613 C 151.564 202.696,152.295 202.451,152.972 203.128 C 153.237 203.393,153.341 203.025,153.289 202.004 C 153.220 200.668,153.304 200.510,153.982 200.688 C 154.574 200.843,154.632 200.966,154.232 201.220 C 153.524 201.669,154.026 201.646,155.272 201.173 C 155.836 200.958,156.198 200.622,156.076 200.426 C 155.803 199.983,156.895 200.113,157.313 200.572 C 157.480 200.756,157.410 200.788,157.156 200.642 C 156.902 200.497,156.597 200.537,156.477 200.730 C 156.159 201.244,157.823 201.584,158.606 201.166 C 158.972 200.969,159.411 200.934,159.582 201.088 C 159.752 201.242,159.775 201.164,159.632 200.915 C 159.462 200.617,159.631 200.531,160.129 200.661 C 160.544 200.769,160.978 201.105,161.094 201.406 C 161.209 201.707,161.495 201.953,161.730 201.953 C 161.964 201.953,162.047 201.778,161.915 201.563 C 161.403 200.736,164.060 201.470,164.854 202.376 L 165.682 203.320 165.098 202.148 C 164.777 201.504,164.414 200.658,164.291 200.268 C 164.155 199.835,163.877 199.670,163.577 199.843 C 163.307 199.998,163.219 199.979,163.382 199.799 C 163.787 199.353,165.584 199.306,165.499 199.744 C 165.461 199.939,165.649 200.178,165.918 200.277 C 166.187 200.375,166.406 200.271,166.406 200.045 C 166.406 199.819,166.680 199.739,167.015 199.867 C 167.370 200.004,167.532 200.365,167.404 200.734 C 167.223 201.258,167.277 201.250,167.718 200.684 C 168.370 199.846,168.915 199.787,168.609 200.586 C 168.322 201.333,168.643 201.334,169.389 200.589 C 169.709 200.268,169.884 199.864,169.777 199.691 C 169.670 199.518,169.725 199.147,169.899 198.865 C 170.121 198.506,170.294 198.483,170.482 198.786 C 170.629 199.024,170.529 199.219,170.261 199.219 C 169.992 199.219,170.114 199.477,170.531 199.792 C 171.238 200.327,171.242 200.367,170.582 200.378 C 170.149 200.386,169.984 200.565,170.154 200.842 C 170.327 201.121,170.262 201.187,169.982 201.014 C 169.734 200.861,169.531 200.921,169.531 201.149 C 169.531 201.376,169.816 201.563,170.165 201.563 C 170.666 201.563,170.703 201.678,170.341 202.114 C 170.037 202.480,170.018 202.748,170.284 202.912 C 170.512 203.053,170.601 203.949,170.491 204.997 C 170.351 206.334,170.399 206.623,170.669 206.055 C 170.872 205.625,171.051 204.739,171.066 204.086 C 171.134 201.165,173.871 193.945,174.911 193.945 C 175.139 193.945,175.472 193.785,175.651 193.590 C 175.840 193.383,175.772 193.352,175.488 193.515 C 174.775 193.926,174.890 193.440,175.811 192.146 C 176.257 191.519,176.765 191.094,176.939 191.202 C 177.113 191.310,177.495 191.092,177.788 190.718 C 178.270 190.104,178.255 190.090,177.637 190.575 C 177.261 190.870,176.953 190.936,176.953 190.721 C 176.953 190.285,178.114 189.221,178.478 189.323 C 178.606 189.359,178.799 189.287,178.906 189.163 C 179.014 189.039,178.882 189.064,178.613 189.218 C 178.345 189.373,178.125 189.335,178.125 189.133 C 178.125 188.585,179.133 187.857,179.451 188.175 C 179.604 188.328,179.599 188.115,179.441 187.703 C 179.273 187.266,179.088 187.149,178.997 187.422 C 178.911 187.680,178.661 187.891,178.441 187.891 C 178.221 187.891,178.138 187.640,178.255 187.333 C 178.478 186.752,177.633 185.778,177.244 186.168 C 176.893 186.518,175.342 185.552,175.595 185.141 C 175.723 184.934,175.530 184.887,175.152 185.032 C 174.661 185.220,174.567 185.150,174.801 184.772 C 175.019 184.418,174.970 184.347,174.646 184.548 C 174.060 184.910,171.804 184.025,172.098 183.548 C 172.216 183.359,172.170 183.230,171.996 183.262 C 171.822 183.295,170.361 183.443,168.750 183.593 M128.320 184.995 L 127.148 186.002 128.418 185.162 C 129.116 184.700,129.688 184.246,129.688 184.153 C 129.688 183.861,129.522 183.963,128.320 184.995 M164.986 198.914 C 164.651 199.456,164.083 198.838,164.329 198.197 C 164.511 197.723,164.630 197.701,164.872 198.093 C 165.043 198.369,165.094 198.739,164.986 198.914 M161.513 198.455 C 161.170 199.009,162.089 200.054,162.642 199.738 C 162.886 199.598,162.956 199.628,162.796 199.804 C 162.637 199.980,162.725 200.403,162.992 200.745 C 163.412 201.285,163.392 201.302,162.842 200.872 C 162.494 200.600,161.902 200.495,161.528 200.638 C 160.961 200.856,160.895 200.749,161.133 200.000 C 161.358 199.291,161.293 199.149,160.825 199.328 C 159.846 199.704,159.704 199.130,160.647 198.608 C 161.786 197.978,161.810 197.974,161.513 198.455 M151.351 201.199 C 151.227 201.399,151.387 201.563,151.706 201.563 C 152.025 201.563,152.350 201.255,152.429 200.879 C 152.544 200.323,152.616 200.360,152.811 201.075 C 152.944 201.558,152.905 201.863,152.725 201.752 C 152.545 201.641,152.282 201.737,152.141 201.966 C 151.962 202.255,151.716 202.242,151.332 201.924 C 150.707 201.405,150.569 200.213,151.178 200.590 C 151.397 200.725,151.474 200.999,151.351 201.199 M158.398 201.953 C 158.531 202.168,158.278 202.344,157.836 202.344 C 156.960 202.344,156.762 202.912,157.482 203.358 C 157.762 203.530,157.827 203.465,157.654 203.185 C 157.480 202.903,157.661 202.734,158.138 202.734 C 158.558 202.734,159.002 202.471,159.126 202.148 C 159.265 201.785,159.124 201.563,158.754 201.563 C 158.426 201.563,158.266 201.738,158.398 201.953 M142.365 204.115 C 142.375 204.609,142.543 205.160,142.738 205.339 C 142.949 205.531,142.964 205.441,142.776 205.117 C 142.570 204.761,142.712 204.384,143.179 204.042 C 143.575 203.753,143.822 203.502,143.727 203.486 C 143.632 203.469,143.283 203.402,142.951 203.337 C 142.544 203.256,142.354 203.510,142.365 204.115 M139.258 205.104 C 138.596 205.367,138.842 205.550,139.702 205.435 C 139.840 205.417,140.101 205.637,140.282 205.924 C 140.464 206.211,140.613 206.270,140.613 206.055 C 140.613 205.213,140.024 204.800,139.258 205.104 M139.012 208.008 C 139.223 208.438,139.682 209.141,140.032 209.570 L 140.668 210.352 140.285 209.570 C 140.074 209.141,139.615 208.438,139.265 208.008 L 138.629 207.227 139.012 208.008 " stroke="none" fill="#f7472c" fill-rule="evenodd"></path><path id="path3" d="M289.160 163.551 C 289.536 163.649,290.151 163.649,290.527 163.551 C 290.903 163.452,290.596 163.372,289.844 163.372 C 289.092 163.372,288.784 163.452,289.160 163.551 M197.266 170.593 C 197.266 170.843,197.441 171.156,197.656 171.289 C 197.871 171.422,198.067 171.916,198.092 172.386 C 198.127 173.036,198.180 173.079,198.315 172.566 C 198.412 172.194,198.216 171.496,197.879 171.014 C 197.542 170.533,197.266 170.343,197.266 170.593 M195.403 171.875 C 195.403 172.627,195.484 172.935,195.582 172.559 C 195.680 172.183,195.680 171.567,195.582 171.191 C 195.484 170.815,195.403 171.123,195.403 171.875 M198.536 174.805 C 198.540 175.664,198.620 175.970,198.714 175.484 C 198.807 174.998,198.804 174.295,198.706 173.921 C 198.608 173.548,198.532 173.945,198.536 174.805 M195.530 175.488 C 195.448 175.757,195.189 176.576,194.955 177.309 C 194.720 178.043,194.616 178.731,194.725 178.839 C 194.833 178.948,194.924 178.963,194.926 178.874 C 194.928 178.784,195.184 177.876,195.493 176.855 C 195.803 175.835,195.971 175.000,195.867 175.000 C 195.764 175.000,195.612 175.220,195.530 175.488 M197.972 178.125 C 197.835 178.877,197.617 179.844,197.488 180.273 C 197.360 180.703,197.530 180.462,197.867 179.737 C 198.204 179.012,198.421 178.045,198.350 177.588 C 198.258 176.997,198.149 177.152,197.972 178.125 M212.891 184.046 C 213.428 184.297,214.966 185.098,216.309 185.825 C 217.651 186.553,218.750 187.060,218.750 186.952 C 218.750 186.641,213.966 184.090,212.891 183.828 L 211.914 183.590 212.891 184.046 M191.797 187.968 C 189.067 190.583,188.809 190.897,190.820 189.158 C 192.324 187.857,194.071 186.248,194.702 185.584 C 196.883 183.286,195.494 184.426,191.797 187.968 M219.141 187.239 C 219.141 187.331,220.063 188.109,221.191 188.968 C 224.040 191.139,225.024 192.086,226.768 194.336 C 228.830 196.997,229.146 197.297,228.278 195.769 C 226.918 193.373,219.141 186.113,219.141 187.239 M182.664 191.042 C 179.236 194.685,176.677 199.353,176.361 202.539 C 176.171 204.455,176.178 204.446,176.729 202.061 C 177.578 198.386,179.844 194.455,183.119 190.973 C 184.714 189.277,185.931 187.891,185.823 187.891 C 185.716 187.891,184.294 189.309,182.664 191.042 M219.718 192.188 C 221.422 194.014,222.984 195.684,223.190 195.898 C 223.396 196.113,223.197 195.762,222.749 195.117 C 222.301 194.473,220.738 192.803,219.277 191.406 L 216.620 188.867 219.718 192.188 M210.547 191.138 C 210.547 191.205,211.118 191.776,211.816 192.407 L 213.086 193.555 211.939 192.285 C 210.869 191.102,210.547 190.836,210.547 191.138 M184.654 195.215 C 183.262 197.128,182.026 199.334,182.038 199.883 C 182.042 200.055,182.538 199.302,183.140 198.211 C 183.742 197.119,184.726 195.581,185.328 194.793 C 185.929 194.004,186.327 193.359,186.212 193.359 C 186.098 193.359,185.397 194.194,184.654 195.215 M214.243 195.901 C 216.003 198.824,216.435 199.193,215.033 196.575 C 214.427 195.444,213.697 194.323,213.410 194.086 C 213.124 193.848,213.498 194.665,214.243 195.901 M193.121 198.675 C 192.797 199.450,192.603 200.155,192.690 200.242 C 192.776 200.328,193.124 199.694,193.462 198.832 C 194.228 196.884,193.927 196.746,193.121 198.675 M195.100 201.021 C 193.848 214.382,198.396 222.197,206.317 220.296 C 210.730 219.238,213.634 214.595,213.882 208.203 L 214.011 204.883 213.705 208.022 C 212.948 215.796,209.699 219.955,204.328 220.025 C 197.964 220.108,194.985 214.554,195.420 203.418 C 195.653 197.454,195.525 196.494,195.100 201.021 M229.958 199.609 C 230.900 203.108,231.265 204.106,231.102 202.732 C 231.013 201.979,230.660 200.748,230.317 199.998 C 229.975 199.246,229.814 199.072,229.958 199.609 M191.797 202.734 C 191.534 203.832,191.396 204.807,191.491 204.902 C 191.586 204.997,191.872 204.170,192.127 203.065 C 192.383 201.959,192.520 200.984,192.433 200.897 C 192.347 200.810,192.060 201.637,191.797 202.734 M226.306 206.055 C 226.307 207.773,226.376 208.428,226.458 207.509 C 226.541 206.590,226.540 205.184,226.456 204.384 C 226.372 203.584,226.304 204.336,226.306 206.055 M180.976 206.250 C 180.976 207.432,181.050 207.915,181.139 207.324 C 181.229 206.733,181.229 205.767,181.139 205.176 C 181.050 204.585,180.976 205.068,180.976 206.250 M231.324 206.081 C 231.043 213.601,227.800 219.126,222.169 221.674 C 217.265 223.893,211.646 223.360,213.689 220.870 C 214.220 220.222,214.185 220.224,213.164 220.888 C 212.562 221.280,212.154 221.819,212.257 222.087 C 212.583 222.936,208.011 224.694,205.113 224.834 L 202.539 224.958 205.078 224.624 C 207.632 224.287,209.766 223.652,209.766 223.229 C 209.766 223.103,209.605 223.100,209.408 223.222 C 209.212 223.343,208.980 223.230,208.894 222.970 C 208.805 222.704,208.109 222.515,207.298 222.538 C 205.716 222.583,205.587 222.433,206.417 221.515 C 206.921 220.959,206.719 220.898,204.367 220.893 C 202.932 220.890,201.274 220.739,200.684 220.558 C 199.972 220.339,199.609 220.370,199.609 220.649 C 199.609 220.880,199.917 220.970,200.293 220.849 C 200.870 220.664,200.885 220.695,200.391 221.050 C 199.958 221.360,199.699 221.328,199.398 220.928 C 199.113 220.549,198.792 220.497,198.330 220.756 C 197.791 221.057,197.717 220.996,197.931 220.426 C 198.166 219.800,198.121 219.785,197.500 220.291 C 197.037 220.668,196.853 221.251,196.946 222.049 L 197.085 223.242 194.832 223.256 C 192.015 223.273,191.835 222.680,194.629 222.591 C 196.440 222.533,196.499 222.506,195.140 222.367 C 193.685 222.218,192.428 221.262,192.831 220.610 C 192.932 220.446,192.643 220.313,192.188 220.313 C 191.722 220.313,191.468 220.488,191.608 220.713 C 191.744 220.933,191.710 221.081,191.533 221.041 C 191.356 221.002,190.859 221.127,190.430 221.319 C 189.747 221.625,189.820 221.700,191.016 221.916 L 192.383 222.163 190.960 222.214 C 189.967 222.250,189.462 222.072,189.290 221.624 C 189.155 221.271,188.931 221.095,188.792 221.234 C 188.653 221.373,188.211 221.188,187.808 220.824 C 187.117 220.198,187.091 220.201,187.345 220.862 C 187.599 221.526,187.548 221.529,186.388 220.929 C 184.438 219.921,183.125 219.479,183.399 219.923 C 184.090 221.041,182.676 220.049,180.895 218.165 C 177.956 215.058,176.837 212.176,176.042 205.664 C 175.944 204.863,175.882 205.048,175.846 206.250 C 175.554 215.975,183.714 223.971,193.741 223.784 C 195.458 223.752,196.799 223.969,197.852 224.448 C 200.516 225.659,207.396 225.493,210.156 224.150 C 212.051 223.228,212.618 223.131,214.954 223.326 C 224.191 224.095,232.131 216.007,231.541 206.430 L 231.398 204.102 231.324 206.081 M191.076 208.414 C 191.016 211.510,191.608 214.653,192.774 217.445 C 193.792 219.881,193.731 218.702,192.679 215.625 C 192.051 213.787,191.577 211.313,191.407 208.984 L 191.136 205.273 191.076 208.414 M218.097 208.789 C 218.099 210.293,218.169 210.860,218.254 210.050 C 218.338 209.239,218.337 208.009,218.251 207.316 C 218.164 206.622,218.095 207.285,218.097 208.789 M181.294 209.375 C 181.139 213.555,187.007 219.186,192.154 219.795 C 193.860 219.997,195.422 220.703,194.164 220.703 C 193.936 220.703,193.750 220.967,193.750 221.289 C 193.750 221.703,194.170 221.875,195.182 221.875 C 195.970 221.875,196.485 221.745,196.327 221.587 C 196.168 221.429,195.743 221.297,195.383 221.294 C 194.988 221.291,194.770 221.029,194.835 220.635 C 194.978 219.766,194.409 219.463,192.325 219.299 C 187.529 218.921,182.826 214.667,181.621 209.616 C 181.364 208.542,181.326 208.513,181.294 209.375 M225.288 211.279 C 224.062 214.733,221.184 217.514,217.305 218.996 C 215.092 219.841,215.010 219.673,216.398 217.154 C 217.039 215.991,217.563 214.688,217.562 214.258 C 217.561 213.828,217.142 214.492,216.632 215.733 C 216.122 216.973,215.495 218.240,215.240 218.548 C 212.759 221.537,220.065 219.049,222.864 215.951 C 224.329 214.329,226.343 210.474,226.102 209.752 C 226.030 209.535,225.664 210.222,225.288 211.279 M186.182 221.336 C 187.444 221.899,189.355 222.492,190.430 222.655 C 192.274 222.933,192.300 222.952,190.887 222.998 C 189.504 223.043,184.662 221.440,183.809 220.654 C 183.201 220.095,183.759 220.255,186.182 221.336 M210.115 221.053 C 210.555 221.337,210.517 221.444,209.920 221.608 C 209.503 221.722,209.653 221.772,210.264 221.724 C 211.643 221.614,211.833 221.020,210.547 220.839 C 209.856 220.741,209.730 220.804,210.115 221.053 M200.000 222.224 C 200.000 222.620,198.810 223.159,198.538 222.887 C 198.440 222.789,198.475 222.521,198.617 222.292 C 198.928 221.787,200.000 221.735,200.000 222.224 M199.371 223.828 C 199.635 223.828,200.192 224.086,200.609 224.401 C 201.553 225.115,199.388 224.611,198.173 223.834 C 197.485 223.394,197.485 223.386,198.176 223.603 C 198.570 223.727,199.108 223.828,199.371 223.828 M177.051 230.347 C 177.427 230.446,178.042 230.446,178.418 230.347 C 178.794 230.249,178.486 230.169,177.734 230.169 C 176.982 230.169,176.675 230.249,177.051 230.347 " stroke="none" fill="#d09b5f" fill-rule="evenodd"></path><path id="path4" d="M256.250 122.373 C 256.250 122.432,257.612 123.794,259.277 125.400 L 262.305 128.320 259.385 125.293 C 256.673 122.481,256.250 122.087,256.250 122.373 M233.398 128.702 C 232.324 128.978,231.797 129.208,232.227 129.213 C 232.656 129.218,233.887 128.996,234.961 128.720 C 236.035 128.444,236.563 128.214,236.133 128.209 C 235.703 128.204,234.473 128.426,233.398 128.702 M262.500 128.846 C 262.500 129.027,262.879 129.511,263.342 129.920 L 264.183 130.664 263.492 129.590 C 262.779 128.482,262.500 128.273,262.500 128.846 M257.227 130.485 L 254.492 130.721 257.692 130.790 C 259.452 130.828,260.977 130.720,261.083 130.550 C 261.310 130.181,260.825 130.173,257.227 130.485 M252.251 131.136 C 252.737 131.229,253.440 131.226,253.813 131.128 C 254.187 131.030,253.789 130.954,252.930 130.958 C 252.070 130.962,251.765 131.042,252.251 131.136 M248.926 131.519 C 249.302 131.618,249.917 131.618,250.293 131.519 C 250.669 131.421,250.361 131.341,249.609 131.341 C 248.857 131.341,248.550 131.421,248.926 131.519 M236.523 133.594 C 235.460 133.864,235.442 133.894,236.328 133.911 C 236.865 133.921,237.656 133.778,238.086 133.594 C 239.049 133.180,238.150 133.180,236.523 133.594 M128.125 136.328 C 127.666 136.973,127.434 137.499,127.610 137.498 C 127.786 137.496,128.229 136.969,128.595 136.326 C 129.451 134.821,129.197 134.822,128.125 136.328 M261.243 135.566 C 266.714 136.194,268.066 137.117,267.279 139.683 C 267.054 140.417,267.022 140.922,267.209 140.807 C 267.395 140.692,267.662 139.987,267.803 139.240 C 268.266 136.768,266.308 135.615,261.210 135.357 L 258.008 135.195 261.243 135.566 M254.395 135.827 C 254.985 135.916,255.952 135.916,256.543 135.827 C 257.134 135.737,256.650 135.664,255.469 135.664 C 254.287 135.664,253.804 135.737,254.395 135.827 M250.879 136.207 C 251.255 136.305,251.870 136.305,252.246 136.207 C 252.622 136.109,252.314 136.028,251.563 136.028 C 250.811 136.028,250.503 136.109,250.879 136.207 M223.633 136.719 C 223.140 136.930,223.068 137.054,223.438 137.054 C 223.760 137.054,224.375 136.903,224.805 136.719 C 225.297 136.507,225.369 136.383,225.000 136.383 C 224.678 136.383,224.063 136.534,223.633 136.719 M240.625 137.891 C 239.312 138.311,240.730 138.311,242.383 137.891 C 243.435 137.623,243.455 137.592,242.578 137.585 C 242.041 137.581,241.162 137.719,240.625 137.891 M235.352 139.063 C 234.288 139.333,234.270 139.362,235.156 139.379 C 235.693 139.390,236.484 139.247,236.914 139.063 C 237.877 138.649,236.978 138.649,235.352 139.063 M230.469 140.234 C 229.684 140.486,229.645 140.549,230.273 140.559 C 230.703 140.565,231.406 140.419,231.836 140.234 C 232.831 139.807,231.804 139.807,230.469 140.234 M226.432 141.214 C 224.368 141.781,223.301 142.428,225.196 141.964 C 227.345 141.437,229.499 140.702,228.906 140.699 C 228.584 140.697,227.470 140.928,226.432 141.214 M264.453 143.485 C 263.271 144.620,261.876 145.843,261.352 146.203 C 260.828 146.562,260.507 146.965,260.639 147.097 C 260.771 147.229,262.254 146.008,263.935 144.383 C 265.617 142.759,266.904 141.428,266.797 141.426 C 266.689 141.424,265.635 142.350,264.453 143.485 M220.508 142.969 C 220.015 143.180,219.943 143.304,220.313 143.304 C 220.635 143.304,221.250 143.153,221.680 142.969 C 222.172 142.757,222.244 142.633,221.875 142.633 C 221.553 142.633,220.938 142.784,220.508 142.969 M200.391 143.945 C 199.639 144.235,199.287 144.477,199.609 144.484 C 199.932 144.491,200.723 144.255,201.367 143.959 C 202.876 143.269,202.174 143.258,200.391 143.945 M216.602 144.141 C 216.109 144.352,216.037 144.476,216.406 144.476 C 216.729 144.476,217.344 144.325,217.773 144.141 C 218.266 143.929,218.338 143.805,217.969 143.805 C 217.646 143.805,217.031 143.956,216.602 144.141 M206.738 147.278 C 205.386 147.821,205.697 148.061,207.129 147.578 C 207.827 147.342,208.472 147.088,208.561 147.012 C 208.879 146.744,207.604 146.930,206.738 147.278 M256.836 149.478 C 248.022 155.524,221.216 169.993,209.504 175.027 C 207.496 175.890,207.422 175.764,207.422 171.500 C 207.422 169.058,207.287 168.353,206.738 167.938 C 206.157 167.498,206.128 167.502,206.543 167.968 C 206.841 168.302,207.033 169.665,207.037 171.465 C 207.044 175.425,207.288 176.260,208.349 175.954 C 214.276 174.241,254.193 152.563,259.020 148.436 C 260.966 146.772,260.359 147.062,256.836 149.478 M200.781 149.414 C 200.029 149.704,199.678 149.941,200.000 149.941 C 200.322 149.941,201.201 149.704,201.953 149.414 C 202.705 149.124,203.057 148.888,202.734 148.888 C 202.412 148.888,201.533 149.124,200.781 149.414 M192.188 152.572 C 190.908 153.096,190.895 153.118,191.992 152.906 C 192.637 152.781,193.331 152.516,193.535 152.316 C 194.003 151.859,193.869 151.884,192.188 152.572 M167.578 156.836 C 167.041 157.143,166.777 157.394,166.992 157.394 C 167.207 157.394,167.822 157.143,168.359 156.836 C 168.896 156.529,169.160 156.278,168.945 156.278 C 168.730 156.278,168.115 156.529,167.578 156.836 M163.965 158.427 C 162.450 159.248,162.622 159.532,164.160 158.749 C 165.633 158.001,165.893 157.806,165.397 157.828 C 165.200 157.837,164.556 158.106,163.965 158.427 M169.727 161.888 C 168.652 162.406,167.883 162.843,168.017 162.860 C 168.375 162.905,171.875 161.322,171.875 161.115 C 171.875 160.856,171.855 160.863,169.727 161.888 M154.297 163.086 C 153.760 163.393,153.496 163.644,153.711 163.644 C 153.926 163.644,154.541 163.393,155.078 163.086 C 155.615 162.779,155.879 162.528,155.664 162.528 C 155.449 162.528,154.834 162.779,154.297 163.086 M164.063 164.453 C 162.881 165.077,162.090 165.588,162.305 165.588 C 162.520 165.588,163.662 165.077,164.844 164.453 C 166.025 163.829,166.816 163.318,166.602 163.318 C 166.387 163.318,165.244 163.829,164.063 164.453 M199.609 165.645 C 200.576 165.817,201.982 165.950,202.734 165.940 L 204.102 165.923 202.930 165.625 C 202.285 165.461,200.879 165.328,199.805 165.329 L 197.852 165.332 199.609 165.645 M159.277 166.822 C 158.042 167.460,157.031 168.069,157.031 168.176 C 157.031 168.283,158.086 167.838,159.375 167.188 C 160.664 166.537,161.719 165.919,161.719 165.815 C 161.719 165.554,161.791 165.524,159.277 166.822 M142.871 169.167 C 142.065 169.593,141.406 170.028,141.406 170.134 C 141.406 170.241,142.109 169.970,142.969 169.531 C 143.828 169.093,144.531 168.650,144.531 168.547 C 144.531 168.291,144.529 168.292,142.871 169.167 M153.418 169.752 C 152.397 170.283,151.563 170.806,151.563 170.913 C 151.563 171.019,152.441 170.662,153.516 170.117 C 154.590 169.573,155.469 169.043,155.469 168.939 C 155.469 168.680,155.504 168.666,153.418 169.752 M191.657 169.613 C 191.525 170.105,191.435 171.035,191.458 171.680 C 191.486 172.488,191.599 172.250,191.823 170.911 C 192.164 168.870,192.064 168.092,191.657 169.613 M114.552 172.852 C 114.556 173.711,114.636 174.017,114.729 173.531 C 114.823 173.045,114.819 172.342,114.722 171.968 C 114.624 171.595,114.547 171.992,114.552 172.852 M134.563 174.078 C 132.570 175.400,131.868 176.097,133.424 175.209 C 134.794 174.427,136.622 173.068,136.321 173.056 C 136.210 173.051,135.419 173.511,134.563 174.078 M190.869 174.268 C 190.543 175.896,190.859 176.211,191.211 174.609 C 191.359 173.934,191.399 173.300,191.300 173.201 C 191.200 173.101,191.006 173.581,190.869 174.268 M144.629 174.605 C 143.931 175.031,143.359 175.464,143.359 175.567 C 143.359 175.670,143.975 175.392,144.727 174.948 C 145.479 174.505,146.094 174.071,146.094 173.985 C 146.094 173.735,145.970 173.787,144.629 174.605 M152.780 174.856 C 151.611 175.674,150.781 177.676,150.781 179.675 C 150.781 180.541,150.715 181.250,150.634 181.250 C 150.552 181.250,149.805 180.964,148.973 180.614 C 146.949 179.762,142.503 179.782,141.181 180.647 C 139.065 182.035,139.240 184.867,141.479 185.453 C 142.073 185.608,142.132 185.732,141.732 185.986 C 141.407 186.192,141.944 186.322,143.164 186.331 C 144.436 186.340,145.440 186.594,146.042 187.057 L 146.967 187.768 145.976 189.294 C 144.265 191.926,143.860 193.968,144.797 195.229 C 146.192 197.103,147.034 196.853,150.189 193.625 C 153.607 190.129,154.366 189.790,155.798 191.125 C 159.761 194.817,164.070 192.534,161.573 188.066 L 160.583 186.295 161.835 185.527 C 163.592 184.449,165.365 183.951,168.750 183.584 L 171.680 183.267 168.317 183.357 C 162.583 183.512,159.410 185.475,160.913 187.940 C 162.962 191.301,160.111 193.882,157.059 191.428 C 154.020 188.985,153.652 189.092,149.473 193.641 C 145.296 198.187,143.045 194.356,146.739 188.988 C 147.897 187.305,147.769 186.942,145.795 186.304 C 140.841 184.703,140.234 184.365,140.234 183.203 C 140.234 180.560,144.889 179.543,149.204 181.244 L 151.172 182.020 151.172 180.255 C 151.172 173.899,155.886 173.073,156.875 179.256 C 157.211 181.357,157.318 181.325,160.769 178.125 C 163.770 175.342,165.220 174.751,166.328 175.859 C 166.895 176.427,166.952 178.764,166.406 179.102 C 165.456 179.689,166.218 179.888,168.901 179.752 C 172.363 179.577,174.979 180.256,179.467 182.494 C 181.199 183.358,182.441 183.887,182.227 183.668 C 180.415 181.829,173.569 179.414,169.531 179.190 C 167.993 179.105,167.415 178.924,167.496 178.552 C 168.445 174.191,164.015 173.911,159.976 178.078 C 157.815 180.307,157.426 180.478,157.413 179.199 C 157.382 175.971,154.733 173.488,152.780 174.856 M114.131 180.273 C 114.062 185.518,114.381 189.063,114.921 189.063 C 115.119 189.063,115.147 188.846,114.984 188.582 C 114.820 188.318,114.576 185.286,114.440 181.844 L 114.193 175.586 114.131 180.273 M129.928 177.144 C 127.984 178.489,126.572 179.736,127.734 179.081 C 128.732 178.519,132.031 176.107,132.031 175.940 C 132.031 175.697,131.967 175.733,129.928 177.144 M140.332 177.174 C 139.419 177.722,138.672 178.262,138.672 178.374 C 138.672 178.585,141.307 177.088,141.973 176.500 C 142.644 175.906,142.019 176.163,140.332 177.174 M188.734 179.055 C 188.016 180.155,186.723 181.626,185.860 182.324 C 184.997 183.022,184.423 183.594,184.585 183.594 C 185.308 183.594,188.371 180.649,189.303 179.060 C 190.728 176.628,190.320 176.624,188.734 179.055 M134.760 180.716 C 132.434 182.257,131.103 183.409,133.008 182.232 C 136.206 180.257,137.514 179.297,137.007 179.297 C 136.950 179.297,135.939 179.936,134.760 180.716 M124.609 181.086 C 122.453 182.792,121.650 183.625,123.242 182.505 C 124.806 181.404,126.806 179.718,126.563 179.705 C 126.455 179.700,125.576 180.321,124.609 181.086 M129.021 184.697 C 125.523 187.333,125.083 187.964,128.411 185.572 C 129.965 184.455,131.338 183.377,131.462 183.177 C 131.804 182.623,131.633 182.729,129.021 184.697 M174.414 184.957 C 175.918 185.725,177.519 186.752,177.971 187.240 L 178.794 188.126 176.523 191.231 C 173.104 195.903,171.149 200.510,171.066 204.086 C 171.051 204.739,170.872 205.625,170.669 206.055 C 170.399 206.623,170.351 206.334,170.491 204.997 C 170.601 203.949,170.512 203.053,170.284 202.912 C 170.018 202.748,170.037 202.480,170.341 202.114 C 170.703 201.678,170.666 201.563,170.165 201.563 C 169.816 201.563,169.531 201.376,169.531 201.149 C 169.531 200.921,169.734 200.861,169.982 201.014 C 170.262 201.187,170.327 201.121,170.154 200.842 C 169.984 200.565,170.149 200.386,170.582 200.378 C 171.242 200.367,171.238 200.327,170.531 199.792 C 170.114 199.477,169.992 199.219,170.261 199.219 C 170.529 199.219,170.629 199.024,170.482 198.786 C 170.294 198.483,170.121 198.506,169.899 198.865 C 169.725 199.147,169.670 199.518,169.777 199.691 C 169.884 199.864,169.709 200.268,169.389 200.589 C 168.643 201.334,168.322 201.333,168.609 200.586 C 168.915 199.787,168.370 199.846,167.718 200.684 C 167.277 201.250,167.223 201.258,167.404 200.734 C 167.532 200.365,167.370 200.004,167.015 199.867 C 166.680 199.739,166.406 199.819,166.406 200.045 C 166.406 200.271,166.187 200.375,165.918 200.277 C 165.649 200.178,165.461 199.939,165.499 199.744 C 165.584 199.306,163.787 199.353,163.382 199.799 C 163.219 199.979,163.307 199.998,163.577 199.843 C 163.877 199.670,164.155 199.835,164.291 200.268 C 164.414 200.658,164.777 201.504,165.098 202.148 L 165.682 203.320 164.854 202.376 C 164.060 201.470,161.403 200.736,161.915 201.563 C 162.047 201.778,161.964 201.953,161.730 201.953 C 161.495 201.953,161.209 201.707,161.094 201.406 C 160.978 201.105,160.544 200.769,160.129 200.661 C 159.631 200.531,159.462 200.617,159.632 200.915 C 159.775 201.164,159.752 201.242,159.582 201.088 C 159.411 200.934,158.972 200.969,158.606 201.166 C 157.823 201.584,156.159 201.244,156.477 200.730 C 156.597 200.537,156.902 200.497,157.156 200.642 C 157.410 200.788,157.480 200.756,157.313 200.572 C 156.895 200.113,155.803 199.983,156.076 200.426 C 156.198 200.622,155.836 200.958,155.272 201.173 C 154.026 201.646,153.524 201.669,154.232 201.220 C 154.632 200.966,154.574 200.843,153.982 200.688 C 153.304 200.510,153.220 200.668,153.289 202.004 C 153.341 203.025,153.237 203.393,152.972 203.128 C 152.295 202.451,151.564 202.696,151.527 203.613 C 151.502 204.248,151.385 204.112,151.106 203.125 C 150.668 201.572,149.758 200.414,150.104 201.849 C 150.286 202.606,150.216 202.669,149.571 202.323 C 149.004 202.020,148.828 202.056,148.828 202.477 C 148.828 202.781,148.579 203.236,148.274 203.490 C 147.599 204.050,147.636 203.390,148.351 202.090 C 148.724 201.413,148.705 201.208,148.255 201.036 C 147.869 200.887,147.769 201.011,147.932 201.435 C 148.070 201.796,147.897 202.201,147.513 202.416 C 147.153 202.618,146.977 202.975,147.122 203.209 C 147.282 203.467,147.205 203.525,146.929 203.354 C 146.677 203.198,146.561 202.926,146.671 202.748 C 146.781 202.571,146.593 202.319,146.255 202.189 C 145.359 201.846,145.313 201.874,145.313 202.757 C 145.313 203.290,145.477 203.467,145.801 203.281 C 146.069 203.126,146.152 203.150,145.985 203.334 C 145.314 204.071,144.657 203.815,144.835 202.886 C 144.963 202.214,144.837 201.953,144.381 201.953 C 143.635 201.953,143.539 202.576,144.238 202.884 C 144.507 203.003,144.039 202.992,143.199 202.862 C 141.901 202.660,141.707 202.718,141.912 203.253 C 142.216 204.043,141.431 204.579,140.998 203.877 C 140.821 203.591,140.763 203.218,140.868 203.047 C 140.974 202.876,140.596 202.913,140.029 203.129 C 139.461 203.345,138.856 203.434,138.683 203.327 C 137.868 202.823,137.505 204.214,138.088 205.610 C 139.190 208.246,138.265 207.057,136.705 203.829 C 135.268 200.857,134.682 198.489,135.510 199.001 C 135.705 199.121,135.777 198.885,135.670 198.477 C 135.139 196.445,138.664 191.627,141.870 190.002 C 144.101 188.871,144.365 188.406,142.285 189.269 C 136.227 191.783,132.969 199.907,134.958 207.542 C 138.491 221.108,155.726 227.119,170.806 220.044 C 174.793 218.174,174.868 218.063,173.699 215.754 C 169.768 207.992,170.942 199.587,177.122 191.229 C 178.318 189.612,179.297 188.206,179.297 188.106 C 179.297 187.310,174.732 184.361,172.656 183.816 C 172.119 183.675,172.910 184.188,174.414 184.957 M137.938 187.526 C 134.988 189.325,130.469 194.997,130.469 196.901 C 130.469 197.138,131.040 196.261,131.738 194.953 C 133.196 192.222,135.750 189.432,138.260 187.828 C 140.237 186.565,139.953 186.298,137.938 187.526 M120.591 191.460 C 114.457 196.975,115.537 200.006,123.866 200.656 C 128.958 201.054,130.482 200.645,130.406 198.902 C 130.346 197.514,130.338 197.506,130.189 198.693 C 130.001 200.189,126.817 200.724,122.138 200.046 C 116.096 199.171,115.704 197.149,120.601 192.117 C 124.168 188.451,124.165 188.248,120.591 191.460 M164.329 198.197 C 164.201 198.530,164.253 198.899,164.443 199.017 C 164.942 199.325,165.239 198.686,164.872 198.093 C 164.630 197.701,164.511 197.723,164.329 198.197 M160.647 198.608 C 159.704 199.130,159.846 199.704,160.825 199.328 C 161.293 199.149,161.358 199.291,161.133 200.000 C 160.895 200.749,160.961 200.856,161.528 200.638 C 161.902 200.495,162.494 200.600,162.842 200.872 C 163.392 201.302,163.412 201.285,162.992 200.745 C 162.725 200.403,162.637 199.980,162.796 199.804 C 162.956 199.628,162.886 199.598,162.642 199.738 C 162.089 200.054,161.170 199.009,161.513 198.455 C 161.810 197.974,161.786 197.978,160.647 198.608 M150.781 200.906 C 150.781 201.699,151.810 202.501,152.141 201.966 C 152.282 201.737,152.545 201.641,152.725 201.752 C 152.905 201.863,152.944 201.558,152.811 201.075 C 152.616 200.360,152.544 200.323,152.429 200.879 C 152.350 201.255,152.025 201.563,151.706 201.563 C 151.387 201.563,151.227 201.399,151.351 201.199 C 151.474 200.999,151.397 200.725,151.178 200.590 C 150.960 200.455,150.781 200.597,150.781 200.906 M159.126 202.148 C 159.002 202.471,158.558 202.734,158.138 202.734 C 157.661 202.734,157.480 202.903,157.654 203.185 C 157.827 203.465,157.762 203.530,157.482 203.358 C 156.762 202.912,156.960 202.344,157.836 202.344 C 158.278 202.344,158.531 202.168,158.398 201.953 C 158.266 201.738,158.426 201.563,158.754 201.563 C 159.124 201.563,159.265 201.785,159.126 202.148 M143.727 203.486 C 143.822 203.502,143.575 203.753,143.179 204.042 C 142.712 204.384,142.570 204.761,142.776 205.117 C 142.964 205.441,142.949 205.531,142.738 205.339 C 142.117 204.770,142.283 203.205,142.951 203.337 C 143.283 203.402,143.632 203.469,143.727 203.486 M140.613 206.055 C 140.613 206.270,140.464 206.211,140.282 205.924 C 140.101 205.637,139.840 205.417,139.702 205.435 C 138.842 205.550,138.596 205.367,139.258 205.104 C 140.024 204.800,140.613 205.213,140.613 206.055 M140.285 209.570 L 140.668 210.352 140.032 209.570 C 139.682 209.141,139.223 208.438,139.012 208.008 L 138.629 207.227 139.265 208.008 C 139.615 208.438,140.074 209.141,140.285 209.570 " stroke="none" fill="#e41612" fill-rule="evenodd"></path></g></svg>